<?xml version="1.0" encoding="utf-8"?>
<!-- Generator: Adobe Illustrator 27.5.0, SVG Export Plug-In . SVG Version: 6.00 Build 0)  -->
<svg version="1.1" xmlns="http://www.w3.org/2000/svg" xmlns:xlink="http://www.w3.org/1999/xlink" x="0px" y="0px"
	 viewBox="0 0 500 500" style="enable-background:new 0 0 500 500;" xml:space="preserve">
<g id="BACKGROUND">
	<rect style="fill:#FFFFFF;" width="500" height="500"/>
</g>
<g id="OBJECTS">
	<ellipse style="fill:#E1E9EF;" cx="252.811" cy="435.04" rx="211.688" ry="17.95"/>
	<g>
		<path style="fill:#E1E9EF;" d="M417.714,299.4c-4.49-0.138-5.432,0.141-5.093,4.697C416.303,304.886,421.977,299.53,417.714,299.4
			z"/>
		<path style="fill:#E1E9EF;" d="M454.181,284.337c-4.073,4.431,2.239,6.142,0.405,9.415c-1.383,2.469-5.697,3.564-7.451,6.066
			c-0.756,1.078-0.415,2.56-1.359,3.534c-1.373,1.417-3.059,1.037-4.675,1.973c-2.169,1.257-5.209,4.293-5.102,6.7
			c3.446,0.782,6.67-3.177,8.667-5.491c2.624-3.039,3.568-3.55,7.136-5.046c3.673-1.539,11.74-7.89,5.291-11.69
			C461.053,287.407,456.963,281.311,454.181,284.337z"/>
		<g>
			<g>
				<path style="fill:#E1E9EF;" d="M51.021,98.384c-2.373-0.36-5.453,2.511-2.592,3.928c-3.057,3.062,2.111,2.998,3.053,4.297
					c2.217,3.059-3.292,1.881-4.67,2.303c-2.223,0.68-2.711,3.188-4.481,4.954c-0.997,0.995-1.947-0.198-1.836,1.887
					c0.095,1.783,1.251,1.737,2.856,1.619c0.361,2.704,4.052,4.705,2.413,7.137c-0.944,1.4-3.924,3.359-5.241,4.607
					c4.558,2.272,8.95-6.07,12.81-6.462c1.046-0.106,1.817,0.079,2.895-0.322c1.075-0.399,1.828-1.549,3.23-1.593
					c2.511-0.078,3.79,1.337,5.507,2.586c1.261,0.918,2.79,1.308,3.946,2.414c1.522,1.456,1.936,3.381,3.166,5.033
					c0.992,1.333,1.4,0.688,1.842,2.35c0.3,1.127-0.456,2.473-0.335,3.421c0.219,1.72,3.307,4.175,1.92,5.795
					c-0.748,0.873-6.148,0.072-4.702,2.895c0.728,1.422,4.667,0.005,6.026,1.035c0.874,0.663,3.192,4.046,3.375,4.967
					c-1.086,0.219-2.249-0.064-3.138-0.447c-1.831,3.133,1.202,2.585,1.862,4.434c0.825,2.311-2.62,4.303-3.235,6.322
					c-0.639,2.1-2.241,12.898,0.815,12.678c0.44,1.093,0.007,2.268,0.368,3.375c0.513,1.577,1.314,1.605,2.515,2.69
					c2.392,2.161,1.583,4.145,2.156,7.061c0.813,4.136,2.23,13.003,8.132,12.046c-0.738-1.522-2.152-2.657-2.803-4.486
					c-0.548-1.541-0.896-3.554-0.808-5.18c2.142,0.399,2.188,1.289,3.118,3.132c0.917,1.818,2.612,3.037,3.486,4.737
					c1.819,3.539-0.634,7.102,4.672,8.158c-0.234,0.277-0.314,0.229-0.236,0.752c1.031,0.494,1.525,1.349,2.341,2.201
					c1.649,1.723,1.087,1.281,3.159,1.462c1.138,0.099,1.537-0.126,2.889,0.257c1.511,0.428,3.382,1.104,4.756,1.849
					c2.113,1.145,3.58,2.945,5.529,4.467c1.933,1.51,3.884,1.834,5.774,3.027c2.694,1.701,1.334,3.486,5.206,2.368
					c1.702-0.492,4.463-1.788,5.124,0.981c0.367,1.54-2.158,4.546-3.223,6.059c-1.602,2.275-4.518,3.66-5.211,6.521
					c-0.743,3.066,0.568,5.23,1.782,7.691c0.967,1.96,1.448,5.684,2.561,7.184c1.769,2.383,5.846,1.709,7.709,4.132
					c0.806,1.048,1.474,2.482,2.159,3.612c1.462,2.413,0.972,2.381,0.211,5.336c-0.779,3.023-0.083,6.855,0.205,9.987
					c0.378,4.109,0.243,8.289,0.584,12.369c0.318,3.806,0.829,6.342-0.196,9.95c-0.794,2.792-1.074,6.475-0.271,9.334
					c1.068,3.8,3.153,4.471,6.066,6.528c2.266,1.6,3.13,4.14,5.981,5.064c2.415,0.783,5.043-0.289,3.883-2.908
					c-1.086-2.451-3.91-2.267-4.408-5.099c-0.678-3.849,1.682-8.097,2.375-11.737c0.545-2.862,0.415-5.723,2.16-8.152
					c1.246-1.735,3.159-2.203,4.74-3.435c1.33-1.035,2.274-2.546,3.371-3.954c1.961-2.517,3.841-5.366,5.249-8.27
					c1.539-3.175,2.793-5.664,6.12-7.381c2.695-1.391,5.956-2.069,7.63-4.666c1.385-2.149,1.16-4.553,0.931-6.843
					c-0.29-2.913,0.229-3.931,2.098-6.053c3.358-3.812,3.978-9.899-1.784-12.039c-2.68-0.995-4.495-0.733-6.574-3.212
					c-2.847-3.395-4.348-6.969-8.487-9.024c-2.45-1.216-5.466-1.685-8.092-2.582c-2.878-0.983-3.77-2.834-6.315-4.452
					c-2.227-1.416-3.92-0.773-6.509-1.047c-2.795-0.295-6.836-2.377-9.545-1.874c-3.044,0.564-4.165,4.039-7.632,3.908
					c-3.221-0.122-6.901-0.324-6.526-4.152c0.142-1.45,1.702-3.033-0.303-4.223c-1.292-0.767-3.17,0.594-4.436-0.83
					c-3.089-3.474,3.991-6.479-4.263-7.317c-1.994,3.566-5.439,4.811-8.421,1.053c-2.735-3.447-0.243-8.417,2.376-11.552
					c2.164,1.186,5.627,0.044,7.933,0.235c3.722,0.308,4.034,0.579,6.461,3.167c1.436,1.531,3.591,3.684,5.27,1.049
					c1.61-2.528-1.435-5.005-0.683-7.573c0.851-2.906,4.736-5.001,7.065-6.445c3.062-1.899,4.125-4.689,5.782-7.83
					c1.072-2.033,3.881-5.66,6.324-6.263c1.678-0.414,4.548,0.332,6.58,0.472c3.5,0.242,5.237-0.942,4.96-4.433
					c-1.352,0.08-4.082,0.079-5.237-0.605c-1.908-1.131-1.516-3.475-2.137-5.186c-0.251-0.06-0.471-0.021-0.723-0.078
					c1.283-2.368,6.974-3.274,6.861,0.525c1.758,0.099,3.367-0.781,5.196-0.71c-0.636,1.618-2.76,2.757-2.565,4.651
					c2.817,1.034,6.516,0.736,7.599-2.25c1.393-3.843-4-4.134-1.849-7.441c1.826-2.807-2.395-11.377-6.52-8.443
					c-0.455-2.088-3.792-10.921-6.85-9.136c-1.478,0.863-0.367,3.968-2.96,1.853c-1.563-1.275-0.78-4.387-2.415-5.868
					c-2.32-2.103-2.457-0.092-2.836,2.118c-0.447,2.604-0.757,5.24-1.052,7.894c-0.199,1.792-0.56,4.926-2.449,6.008
					c-1.552,0.889-3.033-0.425-4.604-0.716c-0.461,1.872-0.522,4.351-2.89,2.611c-1.538-1.13-2.544-4.889-3.749-6.393
					c-2.001-2.495-2.82-6.02-1.245-9.363c1.021-2.166,4.142-3.124,3.922-5.79c1.063-0.15,3.043-0.098,3.985,0.409
					c0.939,0.505,1.231,1.687,2.023,1.983c3.082,1.153,4.851-2.621,3.761-5.077c-1.12-2.522-2.418-3.117,0.778-5.454
					c1.848-1.352,5.936-1.647,4.706-4.815c2.726-0.901,7.642,0.869,6.497,4.703c-0.37,1.237-2.649,1.882-3.051,3.474
					c-0.399,1.579,0.165,2.429,1.263,3.435c1.222,1.119,2.955,1.089,3.902,2.671c0.959,1.601-0.094,3.065,2.408,3.106
					c4.159,0.067,2.889-6.86,1.343-8.953c2.336-1.715,4.843,0.511,5.768-3.088c0.858-3.338-2.8-5.108-4.268-7.638
					c-1.45-2.498-1.716-4.539-2.31-7.229c-0.532-2.408-2.383-4.287-4.731-5.461c-3.395-1.697-12.856-1.567-12.112,4.21
					c0.203,1.575,1.452,1.422,1.919,2.561c0.663,1.618-0.35,2.526-1.079,3.833c-1.068,1.913-2.141,4.317-4.788,3.869
					c-2.166-0.366-1.105-0.675-1.895-2.441c-0.479-1.073-1.523-2.246-1.73-3.336c-0.426-2.243,2.173-5.933,4.079-6.933
					c2.364-1.24,4.26-0.263,3.829-4.139c-0.47-4.223-4.566-0.977-7.455-2.927c-2.189,2.333-2.703,2.692-2.413,5.624
					c0.22,2.234,0.688,4.885-0.14,7.052c-0.669,1.749-2.773,3.948-4.532,4.679c-2.286,0.95-3.887-0.645-6.026-1.309
					c0.025-1.898,11.057-4.783,3.69-6.836c-0.689-3.522,4.341-3.689,5.172-6.079c0.782-2.249-3.839-3.519-5.738-3.896
					c-1.523-0.302-3.15,0.348-4.414,0.232c-2.285-0.21-1.913-0.32-2.888-2.6c-1.548-3.618-2.456-3.235-4.797-0.79
					c-2.148,2.244-4.803,2.657-4.217,6.277c0.56,3.459,4.212,3.203,5.006,6.119c0.741,2.72-0.709,4.153-3.151,4.197
					c-4.755,0.085-4.258-3.229-6.002-6.124c-1.342-2.228-4.897-1.016-7.638-1.245c-2.368-0.197-5.649-1.007-6.83,1.749
					c-2.012-1.549-3.247-3.696-5.072-5.447c-0.894-0.858-1.754-2.13-2.627-2.894c-1.13-0.99-2.672-1.014-3.828-1.882
					c-1.528-1.147-1.988-5.108-3.335-5.684c-1.062-0.454-5.396,2.303-7.053,2.578c-2.327,0.387-5.499,0.264-7.573,1.638
					c-1.046,0.693-2.449,2.338-2.966,3.433c-1.05,2.222-0.159,1.317,0.347,3.342c0.413,1.653-0.069,5.01-2.703,4.685
					c-2.431-0.3-1.922-3.586-5.263-1.256"/>
			</g>
			<g>
				<path style="fill:#E1E9EF;" d="M145.236,73.909c-1.726-0.571-4.183-1.491-5.474,0.053c-1.724,2.063,0.449,2.135,0.742,3.362
					c0.806,3.372-2.05,2.153-3.234,4.54c-1.43,2.883,4.216,4.23,1.13,4.939c-2.387,0.548-4.537-3.348-6.855-2.111
					c-3.252,1.736,1.209,5.417,3.434,5.736c1.383,0.198,2.554,0.142,3.742,0.521c1.23,0.392,1.284,1.39,3.022,1.137
					c1.443-0.21,3.966-2.028,4.227-3.513c0.394-2.24-1.612-1.901-1.998-2.874c-0.514-1.296-0.958-1.66,0.789-1.795
					c2.32-0.179,3.264,2.772,3.639,4.55c0.753,3.577-0.758,2.331-2.631,4.147c-2.153,2.088,0.324,1.938,2.571,2.552
					c1.805,0.493,3.613,1.938,5.58,1.393c1.903-0.527,3.689-3.589,0.561-3.736c0.305-1.087,1.408-1.996,2.241-2.862
					c-1.968,0.03-6.692-1.439-6.445-3.895c4.352-0.916,9.161,4.752,13.107,3.334c4.175-1.5,4.179-4.282,5.07-7.585
					c0.732-2.715,5.105-6.332,8.06-6.013c-0.17,2.009,0.316,3.709-1.348,5.221c-1.621,1.473-4.53,1.059-5.743,3.423
					c1.381,1.358-0.439,2.474-1.613,3.224c-1.939,1.238-3.061,1.09-2.572,3.883c0.704,4.024,5.072,2.492,7.369,5.381
					c2.323,2.922,1.695,6.168,2.176,9.357c0.574,3.8-0.564,5.96-2.669,8.999c0.936,1.314,3.257,1.415,4.466,2.581
					c-1.198,1.307-5.312,3.391-5.833,4.998c-0.602,1.856,1.733,5.214,2.13,7.12c0.484,2.324,1.038,3.967,2.415,5.967
					c0.986,1.431,3.888,4.363,5.223,3.577c2.514-1.482,2.184-7.189,3.344-9.359c1.675-3.133,5.75-3.64,8.697-4.943
					c3.984-1.762,7.512-3.639,10.527-6.849c2.68-2.853,1.928-4.387,3.139-7.677c1.312-3.563,6.678-4.195,5.867-9.108
					c-0.213-1.292-1.462-2.167-1.328-3.466c0.188-1.813,2.411-2.731,3.691-3.626c3.069-2.148,4.882-6.455,5.269-10.532
					c0.091-0.959,0.56-3.185,0.217-4.006c-0.385-0.922-3.56-1.273-1.04-2.613c-0.613-1.245-2.384-0.816-3.723-0.803
					c-0.824,0.008-2.15-0.267-2.907,0.053c-0.454,0.192-1.574,1.523-1.692,1.544c-2.144,0.382-4.139-2.86-6.63-2.441
					c2.028-1.837,6.543-0.431,7.624-2.828c1.598-3.545-4.074-5.292-6.54-5.277c-4.048,0.024-5.633,1.832-8.737,4.211
					c-1.528,1.171-1.825,0.74-3.422,1.316c-1.309,0.472-2.333-0.048-1.882,2.066c-3.948,0.559-2.205-1.577-4.428-3.123
					c-2.159-1.502-4.689,1.291-6.546,1.544c-0.985-3.829,6.997-7.339-0.098-8.118c-2.204-0.242-3.684-1.36-5.731-1.855
					c-2.409-0.583-5.427,0.893-7.644,1.606c-1.638,0.527-4.9,1.267-5.52,2.881c-0.36,0.938,0.368,2.029,0.281,2.9
					c-0.088,0.876-1.067,1.05-0.821,2.113c0.567,2.454,4.156,2.537-0.25,4.131c-2.557,0.926-2.984-0.338-5.218-0.5
					c0.015-1.241,0.995-4.923,0.236-6.026c-1.719-2.497-3.77,0.855-4.223,2.381c-0.582,1.96-0.025,4.306-0.58,6.264
					c-0.43,1.517-3.353,4.95,0.802,4.828c0.925,4.343-6.513-0.256-6.282-3.197c0.102-1.3,2.301-3.739,1.867-5.007
					c-0.437-1.278-2.749-1.329-3.703-2.625C143.784,73.126,144.509,73.998,145.236,73.909z"/>
			</g>
			<g>
				<path style="fill:#E1E9EF;" d="M269.47,124.598c-0.397,0.059-0.733-0.044-1.131,0.061c-1.255,5.241,3.846,6.895,5.827,1.921
					c0.944-2.371-1.233-9.191,3.231-9.938c2.964-0.496,4.071,4.988,8.236,4.309c1.86-0.303,3.533-1.777,5.241-2.299
					c1.959-0.599,4.239-0.577,6.29-1.258c-0.532-2.947-10.406-4.411-13.355-5.142c-1.3-4.216-0.289-8.071,0.329-12.316
					c0.943-6.48,6.209-5.926,10.729-9.684c0.652,4.099-5.063,6.259-7.251,8.957c-3.069,3.784-2.225,4.578,0.582,7.927
					c2.123,2.533,3.664,3.182,5.946,5.075c0.827,0.686,1.03,2.16,1.865,2.881c0.832,0.718,3.329,1.153,4.319,1.527
					c0.249-3.178,0.348-4.131-0.324-6.996c-0.431-1.839-1.336-4.484-1.537-6.767c4.913-1.139,6.578,6.769,7.073,10.246
					c0.729,5.11-2.296,9.626,5.479,8.66c2.125-4.498-3.395-9.479-4.387-13.417c-1.962-7.789,4.244-1.141,7.567-1.249
					c-0.385-2.133-1.986-3.693-2.802-5.798c-1.633-4.214,0.017-1.309,1.593-4.924c0.422-0.968-0.612-2.453-0.346-3.101
					c0.448-1.091,1.312-1.111,1.932-2.062c1.809-2.775,3.133-2.846,5.966-4.338c1.357-3.815,0.734-5.112,4.796-7.035
					c1.648,1.824,3.608,4.019,5.965,4.821c1.089,0.371,3.874-0.277,4.676,0.381c0.894,0.733,1.245,4.07,1.181,5.17
					c-0.05,0.863-1.289,3.353-1.198,3.769c0.851,3.883,6.031,1.673,8.855-0.212c1.847-1.233,0.069-1.533,3.223-2.069
					c2.566-0.436,4.978,0.979,7.391,1.128c-0.183-0.769,0.283-1.889,0.111-2.653c5.097-0.969,3.846,5.83,7.462,6.291
					c4.913,0.626,1.41-5.906,1.267-7.471c1.905-1.52,4.538-1.695,6.581-3.093c3.174,2.61,7.292-0.348,10.73,1.112
					c-0.294,1.494,0.226,2.376,0.963,3.438c4.107-1.734,6.481-3.362,11-2.726c2.158,0.304,4.426-0.079,6.31,0.013
					c2.524,0.123,3.441,1.022,5.886,1.941c0.43-3.925-0.383-5.892,4.836-5.422c3.294,0.297,5.205,3.077,8.267,3.428
					c-0.287-4.65,7.831-2.742,9.957-1.546c3.881,2.182,4.329,8.021-0.722,7.999c-0.675,3.804-0.375,4.571,0.834,8.264
					c0.721,2.203,1.566,6.908-2.41,6.789c-0.201,2.496-1.553,3.244-2.833,5.102c-1.628,2.363-1.639,2.287-1.992,5.153
					c-0.384,3.114-0.071,5.148,0.892,8.315c1.148,3.779,0.551,5.946-0.794,9.543c-0.736,1.968-1.452,8.312-2.892,8.233
					c-6.33-0.347-3.346-18.356-3.923-21.748c-0.118-0.694-1.521-0.745-1.633-1.548c-0.15-1.069,1.121-1.446,1.136-2.397
					c0.018-1.204,0.663-4.099,0.02-5.152c-2.35-3.845-6.687-0.904-7.075,2.377c-0.465,3.936,2.355,4.454-1.982,5.549
					c-3.037,0.767-4.621-0.446-7.234,1.478c-3.211,2.365-9.271,8.756-5.953,12.879c1.451,1.803,6.782,1.547,9.224,2.993
					c3.428,2.031,2.815,2.925,4.747,6.334c0.911,1.609,4.955,6.396,0.415,6.843c-2.796,0.276-3.689-5.1-5.896-6.318
					c-0.329,5.855,5.072,16.846,11.831,11.82c5.912,3.979-2.359,6.618-5.883,6.045c0.076,4.714,6.153,7.001,2.822,12.335
					c-1.711,2.74-9.148,8.591-11.551,5.768c0.584-1.728,4.125-5.365,5.587-7.065c2.82-3.281,3.926-2.063,1.882-5.857
					c-0.563-1.045-4.187-4.317-3.989-5.24c0.363-1.694,4.669-2.248,5.544-4.391c-3.19-0.688-6.753-0.868-7.887-4.566
					c-1.756,2.172-1.802,7.167-0.427,9.38c-3.276,1.31-11.204-1.512-8.698,5.52c1.186,3.325,5.147,3.379,6.299,7.452
					c-4.764,1.407-4.278,2.968-7.975-1.417c-2.177-2.582-2.597-6.413-6.64-5.637c-2.273,0.436-2.105,0.397-2.873,2.775
					c-1.008,3.12-0.47,2.462,1.596,4.458c3.012,2.91,6.425,5.715,8.847,9.416c-1.003,1.673-1.226,4.129-2.495,5.571
					c-0.779,0.885-2.442,1.103-3.092,1.851c-1.173,1.35-0.957,1.343-1.496,2.487c-0.829,1.76,1.252,2.79-2.468,3.577
					c-2.354,0.498-4.348-1.112-6.678-0.742c-0.215,2.291,2.068,6.562,0.324,7.875c-2.111,1.59-6.128-1.55-7.141-3.436
					c-0.885,4.667,4.006,4.221,5.092,7.789c1.505,4.95-4.644,4.439-7.452,2.725c-3.303-2.016-5.761-6.387-9.202-8.582
					c-3.279-2.091-5.712-5.702-9.426-3.751c-2.047,1.075-5.156,4.018-6.242,6.032c-0.83,1.539-0.474,3.175-1.27,4.786
					c-0.974,1.972-2.288,2.671-2.794,5.132c-0.331,1.609,0.684,3.277-0.785,4.271c-2.208,1.494-3.69-1.085-4.785-2.772
					c-2.587-3.987-1.878-8.877-4.33-12.596c-2.14-3.246-7.087-3.734-6.412-8.651c-4.236-0.975-8.989-1.217-13.019-2.747
					c-2.887-1.096-6.436-4.507-9.514-4.467c-5.698,0.072-1.71,4.562,1.189,5.558c3.273,1.125,6.447-0.161,8.323,2.359
					c2.539,3.412,0.741,7.394-2.772,9.223c-2.193,1.141-8.561,3.612-11.079,3.521c-6.062-0.217-7.223-11.67-13.835-12.662
					c-0.325,6.044,4.124,13.6,9.854,15.395c2.638,0.826,8.657-1.274,10.728,1.469c2.179,2.886-2.025,6.918-3.984,8.841
					c-3.169,3.111-12.003,5.324-13.403,9.509c-0.936,2.799,1.96,5.949,2.691,8.334c0.739,2.41,0.794,7.389-1.158,9.444
					c-1.647,1.733-4.872,1.267-6.392,4.003c-1.79,3.222,0.228,5.497,0.021,8.344c-0.258,3.524-4.096,5.732-6.352,8.246
					c-2.348,2.618-3.377,3.804-6.73,4.436c-2.046,0.386-2.538-0.726-4.368,0.506c-1.538,1.036-1.018,3.013-1.952,3.874
					c-7.909,7.295-6.609-8.972-6.76-11.91c-0.416-8.092-9.076-12.856-3.972-20.215c2.824-4.072,4.154-5.861,2.486-10.799
					c-1.176-3.485-2.789-4.082-5.239-6.325c-2.074-1.898-2.078-5.674-4.076-7.372c-2.233-1.896-7.014-1.297-9.81-0.881
					c-5.052,0.752-14.723,0.771-17.142-5.125c-0.913-2.227,0.244-4.864-0.29-7.161c-0.438-1.883-1.971-3.269-2.406-5.145
					c-0.887-3.82,1.487-9.563,3.478-12.683c1.463-2.293,3.598-4.191,5.37-6.254c0.846-0.985,2.758-4.268,3.945-4.777
					c1.618-0.694,3.185,0.685,4.69,0.355c2.171-0.476,3.749-2.628,5.913-3.208c2.823-0.758,8.96,0.393,11.196,1.884
					c2.884,1.923,3.242,4.932,7.047,5.666c1.39,0.268,3.903,0.35,5.254,0.299c3.127-0.117,3.695-1.142,6.252-2.189
					c3.725-1.526,6.599-0.547,10.294,0.216c3.38,0.698,5.747,0.112,5.943-4.281c0.147-3.312-2.095-6.542-5.041-5.845
					c-2.061,0.488-3.581,3.833-6.47,2.208c-1.667-0.937-1.995-5.026-4.629-5.191c-5.534-0.346,0.93,10.184-6.064,8.132
					c-5.384-1.58-4.386-8.659-8.691-11.108c-8.174-4.649-2.178,5.883-2.459,7.779c-5.02,0.779-3.65-1.84-5.974-4.3
					c-1.903-2.015-4.642-1.759-7.344,0.078c-2.759,1.876-2.799,4.756-6.033,5.879c-3.061,1.063-7.554,0.914-7.541-3.182
					c0.015-4.875,3.747-3.935,6.35-5.628c4.109-2.673,0.522-5.356,1.666-9.036c1.13-3.635,4.936-5.284,8.214-5.462
					c1.952-0.106,4.433,0.979,6.381,0.03c1.402-0.683,1.697-2.466,3.154-3.376c2.25-1.404,4.962-0.57,7.054-1.886
					c1.715-1.078,3.185-4.362,4.062-5.956c0.711-1.292-0.38-1.284,1.17-2.872c1.072-1.099,2.632-1.3,3.955-1.883
					c2.565-1.131,4.243-1.636,5.904-3.874c-2.132-1.964-5.76,2.445-8.65,2.189c-2.186-0.194-4.502-1.167-5.093-3.468
					c-0.625-2.431,2.627-4.478,0.701-5.993c-3.471,1.822-3.945,4.95-4.327,8.371c-0.408,3.653,1.519,6.596,0.475,9.61
					c-0.973,2.81-4.349,4.643-6.927,3.172c-3.596-2.052,1.221-6.323-1.894-8.034c-2.996-1.645-8.074,3.109-7.637-3.165
					c0.251-3.6,4.875-8.924,7.233-11.493c1.517-1.653,3.95-3.153,5.182-5.065c1.072-1.662,0.896-2.832,1.653-4.448
					c1.505-3.215,3.358-4.764,7.442-3.983c3.554,0.68,7.849,1.612,10.715,3.587C267.329,119.504,274.913,123.785,269.47,124.598z"/>
			</g>
			<g>
				<path style="fill:#E1E9EF;" d="M369.357,228.449c0.456-6.566-6.836-5.657-7.195-11.831c-0.594-0.123-1.268-0.124-1.862,0
					c-0.491,5.674,2.136,5.301,4.993,8.76c1.496,1.811,1.862,6.93,5.192,6.579C370.612,230.327,370.194,229.566,369.357,228.449z"/>
			</g>
			<g>
				<path style="fill:#E1E9EF;" d="M359.051,223.296c-1.419,0.234-3.19,1.282-3.663,2.775c-0.798,2.52-0.081,1.007,1.373,2.676
					c0.642,0.737,2.001,0.738,2.685,1.686c0.723,1.002,0.075,2.268,0.698,3.267c0.69,1.107,1.965,1.373,2.781,2.4
					c0.546,0.687,1.061,1.943,1.688,2.654c1.904,2.159,3.502,3.292,6.726,3.964c4.811,1.002,9.596,0.139,14.578,1.676
					c4.203,1.297,9.489,4.765,13.524,1.09c-3.573-1.295-8.166,0.688-11.849-0.387c-1.913-0.558-1.881-1.857-3.657-2.674
					c-1.705-0.784-3.286-0.109-5.065-0.497c-1.833-0.4-7.339-1.602-8.827-3.062c-1.895-1.859-0.532-4.688-3.787-6.123
					C365.967,228.752,363.792,222.514,359.051,223.296z"/>
			</g>
			<g>
				<path style="fill:#E1E9EF;" d="M293.253,248.267c-0.235-0.402,0.346-0.755-0.37-0.75c-3.462,2.546-4.261,3.343-4.474,6.716
					c-0.062,0.979,0.897,1.75,0.6,3.151c-0.251,1.18-2.229,2.762-2.901,3.875c-0.676,1.12-3.186,5.118-2.395,6.438
					c1.55,2.585,5.469-0.353,6.764-1.971c1.894-2.365,1.905-5.676,3.253-7.947c1.519-2.557,5.333-3.619,5.884-6.738
					c0.198-1.122-1.212-5.465-2.28-6.065C294.249,243.241,294.7,246.052,293.253,248.267z"/>
			</g>
			<g>
				<path style="fill:#E1E9EF;" d="M386.797,221.314c-2.48,0.482-4.826,2.959-3.616,5.46c-2.767,0.976-6.403,0.713-7.977,3.55
					c-2.078,3.745,2.953,5.919,1.338,9.134c5.56,2.408,10.056-2.919,13.733-6.361c3.437-3.217,1.397-2.36-0.703-4.648
					c-2.465-2.684-1.019-2.351-0.853-6.273C387.79,221.799,387.816,221.115,386.797,221.314z"/>
			</g>
			<g>
				<path style="fill:#E1E9EF;" d="M396.31,228.052c-4.101,1.531-1.931,3.713-3.451,6.846c-1.206,2.486-5.222,3.817-0.612,6.57
					c1.365-2.309,0.197-3.626,2.775-3.407c1.533,0.131,2.273,2.377,4.409,2.21c-0.638-2.903-3.829-1.756-3.536-4.618
					c0.104-1.01,3.089-3.108,3.527-4.36c-1.736-0.851-4.219-0.487-4.695,0.782C394.666,230.721,395.783,229.12,396.31,228.052z"/>
			</g>
			<g>
				<path style="fill:#E1E9EF;" d="M409.391,233.998c-2.125-1.687-5.101-3.151-4.656,0.296c-0.022-0.169,2.216,1.612,2.287,1.677
					c0.331,0.303-0.387,1.605,0.051,1.911c0.577,0.404,2.01,0.171,2.318,0.456c1.244,1.153,1.691,1.422,2.776,2.816
					c0.786,1.009,0.934,2.369,2.069,3.16c1.827,1.272,5.21,1.06,7.374,1.515c-0.005-1.023,0.686-1.956,0.524-3.048
					c1.717,0.233,8.457,4.604,9.373,2.227c1.107-2.873-9.431-3.391-7.104-8.958C418.539,233.597,414.925,230.621,409.391,233.998z"
					/>
			</g>
			<g>
				<path style="fill:#E1E9EF;" d="M412.562,249.456c-0.586-2.423-4.713-3.914-7.155-2.794c-2.873,1.318-2.034,3.373-5.946,4.003
					c-2.771,0.446-3.536-0.46-5.924,1.961c-2.035,2.064-3.07,3.884-6.044,5.46c-4.606,2.44-9.448,3.373-9.812,9.603
					c-0.295,5.051,1.176,10.789-0.722,15.787c6.624,2.665,11.281-3.84,17.371-5.084c8.604-1.757,11.242,2.345,13.388,9.115
					c2.328,7.344,6.816,11.219,13.453,4.656c2.124-2.101,5.951-5.759,7.164-8.638c1.413-3.351,0.629-6.965,2.143-10.285
					c1.374-3.014,2.526-2.592,0.614-6.343c-1.49-2.926-3.784-2.937-5.075-5.549c-1.785-3.612,0.405-10.077-5.024-12
					c-6.242-2.21-1.378,8.443-7.243,9.237C405.564,259.691,417.106,250.027,412.562,249.456z"/>
			</g>
			<g>
				<path style="fill:#9BBBEA;" d="M224.165,197.623l-0.963-0.27c0.275-0.981,0.566-1.945,0.876-2.891l0.95,0.311
					C224.724,195.705,224.436,196.655,224.165,197.623z M226.017,191.966l-0.936-0.353c0.354-0.939,0.734-1.881,1.13-2.8
					l0.918,0.395C226.739,190.114,226.365,191.041,226.017,191.966z M228.369,186.507l-0.9-0.438
					c0.44-0.903,0.906-1.805,1.387-2.682l0.877,0.48C229.26,184.731,228.801,185.62,228.369,186.507z M231.223,181.297l-0.854-0.521
					c0.523-0.855,1.075-1.71,1.638-2.538l0.827,0.563C232.28,179.615,231.738,180.456,231.223,181.297z M234.565,176.384
					l-0.799-0.602c0.602-0.8,1.233-1.597,1.874-2.369l0.77,0.639C235.779,174.812,235.158,175.597,234.565,176.384z
					 M238.363,171.811l-0.738-0.675c0.675-0.738,1.377-1.473,2.088-2.183l0.707,0.708
					C239.719,170.36,239.027,171.083,238.363,171.811z M242.571,167.606l-0.674-0.738c0.747-0.682,1.505-1.344,2.274-1.987
					l0.642,0.768C244.055,166.282,243.308,166.934,242.571,167.606z M247.138,163.787l-0.609-0.793
					c0.802-0.616,1.614-1.212,2.433-1.789l0.576,0.817C248.729,162.592,247.928,163.18,247.138,163.787z M252.006,160.355
					l-0.543-0.84c0.85-0.549,1.705-1.08,2.565-1.593l0.512,0.859C253.689,159.288,252.846,159.813,252.006,160.355z M257.13,157.301
					l-0.48-0.877c0.886-0.486,1.776-0.954,2.67-1.404l0.451,0.893C258.887,156.358,258.006,156.821,257.13,157.301z
					 M262.457,154.613l-0.42-0.907c0.918-0.426,1.838-0.835,2.757-1.226l0.393,0.92
					C264.277,153.787,263.367,154.191,262.457,154.613z M267.952,152.27l-0.365-0.932c0.945-0.37,1.888-0.722,2.825-1.058
					l0.338,0.941C269.82,151.555,268.888,151.904,267.952,152.27z M273.577,150.254l-0.31-0.95c0.967-0.317,1.927-0.617,2.879-0.9
					l0.285,0.958C275.488,149.643,274.536,149.94,273.577,150.254z M279.309,148.545l-0.262-0.966
					c0.988-0.267,1.963-0.516,2.923-0.75l0.236,0.972C281.254,148.033,280.287,148.281,279.309,148.545z M285.122,147.129
					l-0.213-0.978c1.007-0.219,1.993-0.421,2.956-0.607l0.189,0.981C287.1,146.711,286.121,146.911,285.122,147.129z M291,145.993
					l-0.166-0.986c1.029-0.174,2.024-0.329,2.981-0.468l0.145,0.989C293.009,145.666,292.021,145.82,291,145.993z M296.929,145.132
					l-0.119-0.993c1.069-0.129,2.073-0.237,3.004-0.326l0.096,0.995C298.986,144.898,297.99,145.004,296.929,145.132z
					 M302.898,144.561l-0.07-0.998c1.265-0.088,2.287-0.136,3.028-0.162l0.035,0.999
					C305.158,144.426,304.147,144.474,302.898,144.561z M305.757,143.015c-0.69-0.724-1.387-1.436-2.089-2.135l0.705-0.708
					c0.708,0.706,1.41,1.423,2.107,2.153L305.757,143.015z M301.525,138.798c-0.726-0.686-1.458-1.361-2.194-2.024l0.668-0.743
					c0.744,0.668,1.482,1.349,2.214,2.042L301.525,138.798z M297.085,134.807c-0.761-0.649-1.526-1.285-2.297-1.909l0.629-0.777
					c0.777,0.629,1.55,1.271,2.316,1.925L297.085,134.807z M292.443,131.049c-0.792-0.608-1.59-1.204-2.392-1.788l0.588-0.809
					c0.81,0.589,1.613,1.19,2.413,1.804L292.443,131.049z M287.615,127.533c-0.821-0.567-1.648-1.123-2.479-1.666l0.547-0.837
					c0.838,0.548,1.671,1.107,2.5,1.679L287.615,127.533z M282.617,124.264c-0.851-0.526-1.703-1.04-2.561-1.541l0.506-0.863
					c0.863,0.506,1.724,1.024,2.58,1.554L282.617,124.264z M277.462,121.246c-0.874-0.484-1.752-0.956-2.632-1.416l0.463-0.887
					c0.888,0.464,1.771,0.939,2.653,1.428L277.462,121.246z M272.165,118.476c-0.895-0.442-1.794-0.873-2.694-1.291l0.422-0.907
					c0.908,0.422,1.814,0.856,2.716,1.302L272.165,118.476z M266.747,115.956c-0.914-0.401-1.831-0.79-2.751-1.168l0.381-0.925
					c0.926,0.381,1.85,0.773,2.772,1.177L266.747,115.956z M261.22,113.681c-0.933-0.36-1.866-0.709-2.8-1.047l0.34-0.94
					c0.941,0.341,1.881,0.692,2.819,1.055L261.22,113.681z M255.6,111.646c-0.948-0.321-1.895-0.63-2.843-0.929l0.301-0.954
					c0.954,0.302,1.908,0.613,2.862,0.936L255.6,111.646z M249.897,109.845c-0.959-0.282-1.919-0.554-2.877-0.815l0.263-0.965
					c0.965,0.263,1.931,0.537,2.896,0.821L249.897,109.845z M244.126,108.271c-0.969-0.245-1.938-0.479-2.906-0.705l0.227-0.974
					c0.974,0.226,1.949,0.462,2.925,0.708L244.126,108.271z M152.116,107.78l-0.242-0.97c0,0,1.035-0.259,2.954-0.658l0.203,0.979
					C153.142,107.524,152.122,107.778,152.116,107.78z M238.301,106.915c-0.979-0.209-1.956-0.408-2.931-0.598l0.191-0.981
					c0.981,0.191,1.964,0.391,2.949,0.602L238.301,106.915z M157.967,106.552l-0.185-0.983c0.896-0.168,1.886-0.346,2.962-0.53
					l0.169,0.985C159.842,106.207,158.858,106.385,157.967,106.552z M232.428,105.771c-0.986-0.175-1.969-0.34-2.95-0.496
					l0.157-0.987c0.987,0.157,1.976,0.323,2.968,0.499L232.428,105.771z M163.869,105.544l-0.153-0.988
					c0.943-0.146,1.937-0.293,2.977-0.44l0.14,0.99C165.797,105.251,164.809,105.398,163.869,105.544z M226.519,104.829
					c-0.992-0.141-1.981-0.274-2.966-0.397l0.125-0.992c0.99,0.125,1.985,0.257,2.982,0.399L226.519,104.829z M169.8,104.708
					l-0.126-0.992c0.963-0.122,1.959-0.242,2.987-0.358l0.112,0.993C171.751,104.467,170.76,104.586,169.8,104.708z
					 M220.581,104.082c-0.998-0.109-1.99-0.21-2.978-0.302l0.094-0.996c0.993,0.093,1.99,0.194,2.993,0.304L220.581,104.082z
					 M175.751,104.033l-0.1-0.995c0.975-0.097,1.974-0.191,2.994-0.28l0.087,0.996C177.716,103.843,176.722,103.936,175.751,104.033
					z M214.621,103.523c-1.001-0.079-1.997-0.148-2.986-0.211l0.063-0.998c0.994,0.063,1.995,0.134,3.001,0.212L214.621,103.523z
					 M181.717,103.514l-0.073-0.997c0.982-0.073,1.983-0.14,3.001-0.202l0.061,0.998
					C183.692,103.375,182.696,103.442,181.717,103.514z M187.696,103.151l-0.048-0.999c0.988-0.047,1.989-0.088,3.005-0.123
					l0.034,0.999C189.677,103.063,188.679,103.104,187.696,103.151z M208.646,103.145c-1.004-0.049-2.001-0.09-2.991-0.124
					l0.034-0.999c0.995,0.034,1.997,0.075,3.006,0.124L208.646,103.145z M193.681,102.946l-0.021-1
					c0.991-0.021,1.994-0.036,3.008-0.043l0.007,1C195.665,102.91,194.667,102.925,193.681,102.946z M202.662,102.939
					c-1.007-0.021-2.005-0.033-2.994-0.039l0.006-1c0.994,0.006,1.997,0.019,3.008,0.039L202.662,102.939z"/>
			</g>
			<g>
				<path style="fill:#9BBBEA;" d="M385.866,229.727c-0.001-0.018-0.087-1.873-0.524-4.96l0.99-0.141
					c0.444,3.141,0.529,4.98,0.533,5.057L385.866,229.727z M384.508,219.85c-0.318-1.619-0.684-3.256-1.084-4.867l0.971-0.241
					c0.404,1.627,0.772,3.281,1.094,4.915L384.508,219.85z M382.104,210.175c-0.477-1.586-0.999-3.18-1.552-4.736l0.943-0.334
					c0.557,1.571,1.084,3.18,1.565,4.782L382.104,210.175z M378.769,200.79c-0.638-1.543-1.316-3.074-2.02-4.55l0.902-0.43
					c0.711,1.492,1.397,3.039,2.041,4.598L378.769,200.79z M374.493,191.805c-0.797-1.464-1.637-2.911-2.498-4.3l0.85-0.527
					c0.871,1.405,1.722,2.869,2.527,4.35L374.493,191.805z M369.256,183.356c-0.951-1.352-1.954-2.689-2.98-3.975l0.781-0.624
					c1.039,1.301,2.055,2.655,3.018,4.023L369.256,183.356z M363.058,175.6c-1.109-1.224-2.271-2.425-3.45-3.57l0.697-0.718
					c1.194,1.16,2.37,2.377,3.493,3.616L363.058,175.6z M355.938,168.689c-1.258-1.072-2.563-2.114-3.878-3.095l0.598-0.802
					c1.333,0.995,2.654,2.05,3.929,3.136L355.938,168.689z M347.991,162.754c-1.38-0.898-2.807-1.764-4.242-2.574l0.492-0.871
					c1.453,0.82,2.898,1.697,4.295,2.607L347.991,162.754z M339.356,157.876c-1.474-0.717-2.997-1.402-4.525-2.036l0.383-0.924
					c1.547,0.642,3.088,1.335,4.58,2.06L339.356,157.876z M330.193,154.07c-1.54-0.539-3.131-1.047-4.729-1.512l0.279-0.96
					c1.615,0.469,3.224,0.983,4.78,1.527L330.193,154.07z M320.658,151.296c-1.475-0.348-3.005-0.672-4.548-0.965l0.186-0.982
					c1.559,0.296,3.103,0.624,4.591,0.974L320.658,151.296z"/>
			</g>
			<g>
				<path style="fill:#9BBBEA;" d="M168.507,242.182l-0.983-0.183c0.306-1.643,0.58-3.295,0.815-4.913l0.989,0.144
					C169.091,238.86,168.814,240.526,168.507,242.182z M169.944,232.248l-0.995-0.102c0.17-1.665,0.301-3.334,0.39-4.96l0.998,0.055
					C170.248,228.882,170.115,230.567,169.944,232.248z M170.488,222.217l-1-0.004l0.001-0.403c-0.001-1.54-0.039-3.076-0.114-4.566
					l0.999-0.051c0.076,1.506,0.115,3.059,0.115,4.617L170.488,222.217z M168.982,212.296c-0.181-1.653-0.415-3.305-0.694-4.91
					l0.985-0.172c0.283,1.625,0.519,3.298,0.703,4.973L168.982,212.296z M167.277,202.534c-0.393-1.612-0.844-3.217-1.341-4.771
					l0.952-0.305c0.504,1.576,0.962,3.204,1.361,4.838L167.277,202.534z M164.255,193.102c-0.615-1.527-1.295-3.048-2.022-4.522
					l0.896-0.442c0.738,1.496,1.429,3.041,2.053,4.591L164.255,193.102z M159.873,184.224c-0.837-1.414-1.74-2.814-2.686-4.165
					l0.819-0.573c0.96,1.371,1.877,2.794,2.727,4.229L159.873,184.224z M154.194,176.107c-1.038-1.269-2.142-2.521-3.279-3.722
					l0.726-0.688c1.154,1.218,2.274,2.488,3.328,3.776L154.194,176.107z M147.376,168.907c-1.207-1.106-2.476-2.194-3.772-3.232
					l0.625-0.78c1.313,1.052,2.599,2.153,3.823,3.275L147.376,168.907z M139.627,162.694c-1.337-0.938-2.736-1.856-4.157-2.73
					l0.523-0.852c1.438,0.884,2.854,1.813,4.208,2.763L139.627,162.694z M131.155,157.482c-1.441-0.777-2.939-1.53-4.448-2.238
					l0.425-0.905c1.526,0.716,3.04,1.477,4.498,2.262L131.155,157.482z M122.141,153.251c-1.539-0.624-3.11-1.212-4.667-1.748
					l0.325-0.945c1.574,0.542,3.162,1.136,4.718,1.767L122.141,153.251z M112.717,150.012c-2.988-0.841-4.829-1.17-4.847-1.173
					l0.174-0.984c0.076,0.013,1.903,0.339,4.944,1.195L112.717,150.012z"/>
			</g>
			<g>
				<path style="fill:#9BBBEA;" d="M104.724,117.038l-0.997-0.079c0.006-0.08,0.161-1.986,0.779-5.031l0.98,0.199
					C104.881,115.106,104.725,117.019,104.724,117.038z M106.665,107.295l-0.962-0.274c0.463-1.627,0.992-3.24,1.569-4.796
					l0.938,0.348C107.641,104.104,107.121,105.693,106.665,107.295z M110.126,97.993l-0.905-0.425
					c0.725-1.545,1.515-3.049,2.348-4.469l0.862,0.506C111.614,94.999,110.839,96.476,110.126,97.993z M115.144,89.463l-0.808-0.59
					c1.004-1.375,2.081-2.691,3.199-3.912l0.737,0.676C117.179,86.831,116.126,88.118,115.144,89.463z M121.813,82.2l-0.652-0.758
					c1.279-1.1,2.633-2.127,4.026-3.053l0.554,0.833C124.382,80.126,123.06,81.127,121.813,82.2z M130.005,76.758l-0.445-0.896
					c1.487-0.74,3.051-1.403,4.646-1.97l0.335,0.942C132.983,75.389,131.457,76.036,130.005,76.758z M139.272,73.454l-0.227-0.974
					c1.6-0.373,3.269-0.67,4.958-0.886l0.127,0.992C142.474,72.797,140.84,73.089,139.272,73.454z M163.883,73.309
					c-1.664-0.291-3.318-0.53-4.918-0.711l0.112-0.994c1.62,0.183,3.294,0.425,4.978,0.719L163.883,73.309z M154.016,72.209
					c-1.71-0.075-3.363-0.08-4.958-0.022l-0.036-0.999c1.621-0.059,3.3-0.053,5.038,0.021L154.016,72.209z"/>
			</g>
			<g>
				<g>
					<path style="fill:#9BBBEA;" d="M110.177,103.146c0-3.71-3.008-6.718-6.718-6.718c-3.71,0-6.718,3.008-6.718,6.718
						c-0.642,6.58,6.718,16.266,6.718,16.266S110.82,109.726,110.177,103.146z"/>
				</g>
				<g>
					<path style="fill:#F1F0F7;" d="M107.769,103.146c0,2.38-1.929,4.309-4.309,4.309c-2.38,0-4.309-1.929-4.309-4.309
						c0-2.38,1.929-4.309,4.309-4.309C105.84,98.837,107.769,100.766,107.769,103.146z"/>
				</g>
			</g>
			<g>
				<g>
					<path style="fill:#9BBBEA;" d="M169.205,66.955c0-2.298-1.863-4.161-4.161-4.161c-2.298,0-4.161,1.863-4.161,4.161
						c-0.398,4.076,4.161,10.076,4.161,10.076S169.603,71.031,169.205,66.955z"/>
				</g>
				<g>
					<path style="fill:#F1F0F7;" d="M167.713,66.955c0,1.474-1.195,2.669-2.669,2.669c-1.474,0-2.669-1.195-2.669-2.669
						c0-1.474,1.195-2.669,2.669-2.669C166.518,64.286,167.713,65.481,167.713,66.955z"/>
				</g>
			</g>
			<g>
				<g>
					<path style="fill:#9BBBEA;" d="M156.508,99.525c0-2.298-1.863-4.161-4.161-4.161c-2.298,0-4.161,1.863-4.161,4.161
						c-0.398,4.076,4.161,10.076,4.161,10.076S156.906,103.601,156.508,99.525z"/>
				</g>
				<g>
					<path style="fill:#F1F0F7;" d="M155.016,99.525c0,1.474-1.195,2.669-2.669,2.669c-1.474,0-2.669-1.195-2.669-2.669
						s1.195-2.669,2.669-2.669C153.821,96.856,155.016,98.051,155.016,99.525z"/>
				</g>
			</g>
			<g>
				<g>
					<path style="fill:#9BBBEA;" d="M111.637,142.935c0-1.837-1.489-3.326-3.326-3.326c-1.837,0-3.326,1.489-3.326,3.326
						c-0.318,3.258,3.326,8.054,3.326,8.054S111.955,146.193,111.637,142.935z"/>
				</g>
				<g>
					<path style="fill:#F1F0F7;" d="M110.444,142.935c0,1.178-0.955,2.134-2.133,2.134c-1.178,0-2.134-0.955-2.134-2.134
						c0-1.178,0.955-2.133,2.134-2.133C109.489,140.801,110.444,141.756,110.444,142.935z"/>
				</g>
			</g>
			<g>
				<g>
					<path style="fill:#9BBBEA;" d="M170.904,238.46c0-1.837-1.489-3.326-3.326-3.326c-1.837,0-3.326,1.489-3.326,3.326
						c-0.318,3.258,3.326,8.054,3.326,8.054S171.222,241.718,170.904,238.46z"/>
				</g>
				<g>
					<path style="fill:#F1F0F7;" d="M169.711,238.46c0,1.178-0.955,2.133-2.134,2.133c-1.178,0-2.133-0.955-2.133-2.133
						c0-1.178,0.955-2.133,2.133-2.133C168.756,236.327,169.711,237.282,169.711,238.46z"/>
				</g>
			</g>
			<g>
				<g>
					<path style="fill:#9BBBEA;" d="M309.303,138.468c0-1.837-1.489-3.326-3.326-3.326c-1.837,0-3.326,1.489-3.326,3.326
						c-0.318,3.258,3.326,8.054,3.326,8.054S309.621,141.726,309.303,138.468z"/>
				</g>
				<g>
					<path style="fill:#F1F0F7;" d="M308.11,138.468c0,1.178-0.955,2.133-2.134,2.133c-1.178,0-2.134-0.955-2.134-2.133
						c0-1.178,0.955-2.134,2.134-2.134C307.155,136.335,308.11,137.29,308.11,138.468z"/>
				</g>
			</g>
			<g>
				<g>
					<path style="fill:#9BBBEA;" d="M388.435,225.032c0-1.837-1.489-3.326-3.326-3.326c-1.837,0-3.326,1.489-3.326,3.326
						c-0.318,3.258,3.326,8.054,3.326,8.054S388.753,228.29,388.435,225.032z"/>
				</g>
				<g>
					<path style="fill:#F1F0F7;" d="M387.243,225.032c0,1.178-0.955,2.133-2.134,2.133c-1.178,0-2.134-0.955-2.134-2.133
						s0.955-2.133,2.134-2.133C386.287,222.898,387.243,223.854,387.243,225.032z"/>
				</g>
			</g>
			<g>
				<g>
					<path style="fill:#9BBBEA;" d="M323.029,139.113c0-3.201-2.594-5.795-5.795-5.795s-5.795,2.594-5.795,5.795
						c-0.554,5.676,5.795,14.031,5.795,14.031S323.583,144.789,323.029,139.113z"/>
				</g>
				<g>
					<circle style="fill:#F1F0F7;" cx="317.234" cy="139.113" r="3.717"/>
				</g>
			</g>
		</g>
	</g>
	<g>
		<g>
			<g>
				<g>
					<path style="fill:#FFA895;" d="M228.322,335.371l-2.282,45.503c-0.328,3.028-0.155,6.089,0.514,9.06l3.64,16.167
						c0.683,3.032,1.805,5.948,3.33,8.655l1.892,3.357c0,0-1.166,4.451-1.538,6.634c-0.372,2.182-8.912,7.233-8.912,7.233
						l3.082-7.655c0.475-1.121,1.074-2.701,0.381-3.702l-1.842-3.992l-13.441-25.244c-1.442-3.227-2.253-6.701-2.388-10.233
						l-1.863-45.783H228.322z"/>
				</g>
				<g>
					<g>
						<path style="fill:#FFA895;" d="M200.937,323.184l18.246,6.672l-12.698,49.829c-0.178,0.7-0.381,1.394-0.642,2.068
							c-1.152,2.969-1.676,8.544-2.04,11.348l-1.383,32.972c0,0-3.168,3.337-4.547,5.069c-1.379,1.732-11.296,2.038-11.296,2.038
							l6.392-5.219c0.957-0.753,1.461-1.944,1.337-3.155l-3.595-34.945c-0.246-3.526-0.617-7.514,0.469-10.878L200.937,323.184z"/>
					</g>
					<g>
						<path style="fill:#C6AE7D;" d="M186.772,432.663l8.176-0.772l6.737-6.187l0.919-1.287c0,0,3.309,5.146,2.022,8.823
							l-0.919,2.573h-2.022l-0.184-5.698l-4.506,5.016c-0.292,0.478-0.803,0.78-1.363,0.802l-9.137,0.372
							c-0.343,0.014-0.646-0.165-0.895-0.453C184.624,434.726,185.309,432.951,186.772,432.663z"/>
					</g>
				</g>
				<g>
					<path style="fill:#EFAF84;" d="M217.944,211.214l5.329,2.469c7.704,3.57,11.055,12.709,7.485,20.413l-1.273,2.747
						l-33.227-15.397l1.273-2.747C201.101,210.995,210.24,207.644,217.944,211.214z"/>
				</g>
				<g>
					
						<ellipse transform="matrix(0.4204 -0.9073 0.9073 0.4204 -88.7486 326.1522)" style="fill:#C48D65;" cx="210.927" cy="232.546" rx="12.618" ry="36.293"/>
				</g>
				<g>
					<path style="fill:#FFA895;" d="M136.978,237.95l6.369-4.121l12.309,14.757c0.625,0.731,1.479,1.229,2.423,1.414l21.089,4.139
						l0.856,14.59l-23.773-9.082c-3.296-1.044-6.199-3.06-8.328-5.784L136.978,237.95z"/>
				</g>
				<g>
					<path style="fill:#FFA895;" d="M143.838,234.177c0,0,1.781-3.422,0.194-5.295c-1.093-1.29-2.792-3.764-3.53-5.293
						c-0.653-1.353-2.8-0.808-2.369,1c0.041,0.171,0.065,0.364,0.135,0.568c0.707,2.067,2.225,3.691,2.225,3.691l-1.69,0.635
						l-8.465,3.594c0,0,2.78,4.553,6.104,5.663C140.115,239.968,143.838,234.177,143.838,234.177z"/>
				</g>
				<g>
					<path style="fill:#F49889;" d="M138.934,227.92c2.036,1.035,2.745,3.729,1.582,6.017c-1.163,2.289-3.757,3.305-5.793,2.27
						c-2.036-1.035-2.745-3.729-1.582-6.017C134.304,227.902,136.898,226.885,138.934,227.92z"/>
				</g>
				<g>
					<path style="fill:#39484C;" d="M138.561,209.252l7.944,0.804c0.109,0.011,0.204,0.056,0.282,0.12l0.004,0l0.758,0.653
						l0.015,0.025c0.133,0.128,0.198,0.322,0.147,0.517l-5.341,20.455c-0.066,0.253-0.306,0.419-0.566,0.393l-7.944-0.804
						c-0.311-0.031-0.522-0.323-0.465-0.625l-0.282-0.029c-0.323-0.033-0.541-0.346-0.459-0.661l5.341-20.455
						C138.061,209.393,138.301,209.226,138.561,209.252z"/>
				</g>
				<g>
					<path style="fill:#B12E36;" d="M223.178,305.807c0,0,1.867,2.938,4.254,7.971c6.834,14.415,10.163,30.241,9.888,46.191
						l-0.286,16.951h-49.166c0,0-0.656-33.674,8.943-70.858L223.178,305.807z"/>
				</g>
				<g>
					<path style="fill:#4C352D;" d="M211.708,225.316c0.135,0.056,0.242,0.1,0.335,0.138c0.303,0.131,0.605,0.262,0.907,0.395
						c0.66,0.292,1.32,0.586,1.98,0.881c1.989,0.887,3.986,1.758,5.999,2.589c2.463,1.018,4.954,1.932,7.555,2.499
						c-0.155,2.627-0.514,5.264,0.342,7.719c1.605,4.6,7.134,7.459,7.46,12.32c0.151,2.243-0.895,4.381-2.023,6.326
						c-1.128,1.944-2.393,3.892-2.752,6.111c-0.36,2.219,0.48,4.826,2.542,5.72c-4.482,2.819-9.618,3.23-14.875,2.601
						c-1.477-0.177-3.01-0.373-4.265-1.172c-2.736-1.744-3.103-5.52-3.199-8.763c-0.264-8.972-0.951-18.76-7.017-25.376
						c-1.865-2.035-4.173-3.674-5.753-5.937c-2.036-2.918-3.003-7.796-1.554-11.029C202.244,221.76,207.086,223.433,211.708,225.316
						z"/>
				</g>
				<g>
					<path style="fill:#965E38;" d="M231.466,260.71c0,0,8.779,9.576,1.92,52.26h-1.547c0,0,6.417-42.251-2.399-53.61
						L231.466,260.71z"/>
				</g>
				<g>
					<path style="fill:#D8D3C7;" d="M205.115,264.145c0,0-0.882,8.501-8.818,9.062c-7.936,0.562-24.077-6.533-24.077-6.533
						l3.226-13.75C175.446,252.924,207.812,257.132,205.115,264.145z"/>
				</g>
				<g>
					<path style="fill:#4C352D;" d="M211.708,225.316c0.135,0.056,0.242,0.1,0.335,0.138c0.303,0.131,0.605,0.262,0.907,0.395
						c0.66,0.292,1.32,0.586,1.98,0.881c0.935,0.417,1.871,0.829,2.81,1.236c-0.206,6.044-5.573,10.885-12.168,10.885
						c-6.726,0-12.178-5.035-12.178-11.245c0-2.891,1.182-5.527,3.124-7.519C201.664,221.561,206.809,223.32,211.708,225.316z"/>
				</g>
				<g>
					<path style="fill:#A7C9D1;" d="M141.854,231.729c0.016-0.011,0.026-0.018,0.041-0.029l5.341-20.455
						c0.006-0.024-0.012-0.043-0.027-0.047l-7.951-0.805c-0.016,0.011-0.026,0.018-0.041,0.029l-5.343,20.461
						c0.011,0.016,0.017,0.024,0.028,0.04L141.854,231.729z"/>
				</g>
				<g>
					<polygon style="fill:#B7E6ED;" points="146.007,212.065 139.963,211.453 135.105,230.059 141.148,230.67 					"/>
				</g>
				<g>
					<path style="fill:#4C352D;" d="M205.292,222.887c2.17,0.765,4.317,1.573,6.417,2.429c0.135,0.056,0.242,0.1,0.335,0.138
						c0.303,0.131,0.605,0.262,0.907,0.395c0.66,0.292,1.32,0.586,1.98,0.881c1.989,0.887,3.986,1.758,5.999,2.589
						c1.247,0.515,2.502,1.001,3.773,1.433c0.041,0.375,0.062,0.755,0.062,1.14c0,6.211-5.452,11.245-12.178,11.245
						c-6.725,0-12.177-5.035-12.177-11.245C200.409,228.208,202.327,224.938,205.292,222.887z"/>
				</g>
				<g>
					<path style="fill:#FFA895;" d="M195.174,235.174c-1.319,7.786,2.865,14.988,9.345,16.086s12.803-4.324,14.122-12.11
						c1.319-7.786-2.864-14.988-9.345-16.086C202.816,221.966,196.493,227.388,195.174,235.174z"/>
				</g>
				<g>
					<path style="fill:#FFA895;" d="M213.381,257.861h-2.803c-1.582,0-2.865-1.283-2.865-2.865v-13.95
						c0-1.582,1.283-2.865,2.865-2.865h2.803c1.582,0,2.865,1.283,2.865,2.865v13.95
						C216.245,256.578,214.963,257.861,213.381,257.861z"/>
				</g>
				<g>
					<ellipse style="fill:#FFA895;" cx="211.979" cy="265.426" rx="15.63" ry="10.487"/>
				</g>
				<g>
					<path style="fill:#EAE6DA;" d="M226.81,290.997l12.484,2.052c0,0,2.589-26.537-12.067-34.165
						c-2.248-1.574-5.846-2.585-8.129-2.814c0.415,0.34,1.7,1.549,1.511,3.4c-0.42,4.115-3.509,6.249-9.024,6.249
						c-5.515,0-9.245-1.918-9.01-6.256c0.076-1.398,1.477-2.884,1.503-3.104c0,0-3.925,0.557-8.133,0.881
						c0,0-0.429,10.693-1.469,12.565c-1.04,1.872-4.161,8.322-1.248,13.731c2.913,5.409,6.144,13.312,3.584,22.527
						c0,0,11.776,7.936,26.367-0.256c0,0-1.451-11.957,1.924-19.53C226.016,289.084,226.81,290.997,226.81,290.997z"/>
				</g>
				<g>
					<path style="fill:#D8D3C7;" d="M225.102,286.277c0,0-3.203-12.985,1.19-21.772c0,0-8.567,11.203-8.128,21.308
						c0.409,9.4-18.002,5.874-20.572,5.336c-0.134-0.028-0.249,0.095-0.211,0.227c0.172,0.599,0.556,2.023,0.718,3.293
						c0.075,0.588,0.573,1.03,1.167,1.03h16.084c2.788,0,5.142,2.063,5.512,4.826c0.26,1.942,0.42,4.225,0.209,6.365
						c0.695-0.325,1.398-0.684,2.108-1.082C223.178,305.807,221.728,293.85,225.102,286.277z"/>
				</g>
				<g>
					<path style="fill:#C1584D;" d="M202.63,245.739c1.874,0,3.533-1.028,4.279-2.674c0.142-0.313,0.003-0.682-0.31-0.824
						c-0.313-0.142-0.682-0.004-0.824,0.311c-0.569,1.257-1.882,2.022-3.359,1.936c-1.112-0.061-2.476-0.666-2.971-2.18
						c-0.107-0.327-0.456-0.506-0.785-0.398c-0.327,0.106-0.505,0.458-0.399,0.785c0.577,1.767,2.142,2.931,4.086,3.037
						C202.442,245.736,202.536,245.739,202.63,245.739z"/>
				</g>
				<g>
					<path style="fill:#4C352D;" d="M195.948,220.028c0.416,0.054,0.832,0.111,1.249,0.164c0.387,0.05,0.774,0.1,1.161,0.15
						c0.033,0.01,1.192,0.176,1.421,0.215c2.29,0.386,4.507,0.915,6.672,1.741c0.334,0.14,0.84,0.352,0.975,0.415
						c0.617,0.286,1.231,0.576,1.846,0.865c1.685,0.794,3.383,1.546,5.107,2.255c1.819,0.748,3.6,1.245,5.446,1.602
						c1.746,1.77,3.25,3.771,4.394,5.965c-2.65,1.162-5.863,0.939-8.327-0.577c-2.464-1.517-4.503-4.328-4.659-7.217
						c-1.444,1.506-3.002,3.079-5.028,3.576c-1.714,0.421-3.552,0.009-5.262,0.444c-1.999,0.508-3.566,2.132-4.499,3.972
						c-0.933,1.84-1.56,4.105-1.939,6.133c-3.395-3.64-4.519-9.24-2.791-13.909C192.553,223.546,194.057,221.547,195.948,220.028z"
						/>
				</g>
				<g>
					<path style="fill:#FFA895;" d="M223.069,237.111c0,1.991-1.614,3.605-3.605,3.605c-1.991,0-3.605-1.614-3.605-3.605
						c0-1.991,1.614-3.605,3.605-3.605C221.456,233.506,223.069,235.12,223.069,237.111z"/>
				</g>
				<g>
					<g>
						<path style="fill:#FFA895;" d="M135.97,235.722l-0.505,0.722c-0.285,0.407-0.846,0.507-1.254,0.221l-4.759-3.33
							c-0.407-0.285-0.507-0.846-0.221-1.254l0.505-0.722c0.285-0.407,0.846-0.507,1.254-0.221l4.759,3.33
							C136.156,234.753,136.255,235.315,135.97,235.722z"/>
					</g>
					<g>
						<path style="fill:#FFA895;" d="M139.412,231.904l-0.505,0.722c-0.285,0.407-0.846,0.507-1.254,0.221l-5.857-4.099
							c-0.407-0.285-0.507-0.846-0.222-1.254l0.505-0.722c0.285-0.407,0.846-0.506,1.254-0.221l5.857,4.099
							C139.598,230.936,139.697,231.497,139.412,231.904z"/>
					</g>
					<g>
						<path style="fill:#FFA895;" d="M141.116,229.942l-0.505,0.722c-0.285,0.407-0.846,0.507-1.254,0.221l-4.759-3.33
							c-0.407-0.285-0.506-0.846-0.221-1.254l0.505-0.722c0.285-0.407,0.846-0.506,1.254-0.221l4.759,3.33
							C141.302,228.973,141.401,229.535,141.116,229.942z"/>
					</g>
					<g>
						<path style="fill:#FFA895;" d="M138.138,234.085l-0.505,0.722c-0.285,0.407-0.846,0.506-1.254,0.221l-5.993-4.194
							c-0.407-0.285-0.507-0.846-0.221-1.254l0.505-0.722c0.285-0.407,0.846-0.506,1.254-0.221l5.993,4.194
							C138.324,233.116,138.423,233.677,138.138,234.085z"/>
					</g>
				</g>
				<g>
					<path style="fill:#C48D65;" d="M194.939,218.695c1.025-0.072,2.052-0.112,3.08-0.129c1.084,0.238,2.164,0.499,3.228,0.817
						c2.118,0.634,4.205,1.363,6.256,2.19c0.178,0.072,1.897,0.792,1.232,0.502c0.286,0.123,0.573,0.246,0.859,0.37
						c1.128,0.494,2.254,0.994,3.379,1.495c2.433,1.084,4.872,2.151,7.332,3.173c1.423,0.591,2.886,1.083,4.322,1.644
						c0.432,0.192,1.595,0.695,1.889,0.836c0.713,0.342,1.425,0.687,2.121,1.061c0.865,0.465,1.727,0.94,2.556,1.468
						c0.395,0.252,2.069,1.524,1.743,1.213c0.451,0.39,0.892,0.793,1.291,1.235c0.045,0.048,0.085,0.099,0.128,0.147
						c0.022,0.033,0.038,0.058,0.064,0.095c0.022,0.033,0.045,0.065,0.067,0.098c0.949,5.922-1.775,9.048-1.775,9.048
						s-15.353-23.585-44.272-20.445c0,0,2.771-2.329,6.223-4.81C194.754,218.703,194.846,218.701,194.939,218.695z"/>
				</g>
				<g>
					<path style="fill:#4C352D;" d="M208.746,231.776c0.01,0,0.018,0.003,0.028,0.003c0.302-0.051,0.961-0.08,1.638,0.432
						c0.583,0.441,1.375,0.069,1.375,0.069s-0.35,1.034-1.762,1.052c0,0.007,0.002,0.013,0.002,0.02
						c0,0.871-0.574,1.576-1.281,1.576c-0.707,0-1.281-0.706-1.281-1.576C207.465,232.482,208.039,231.776,208.746,231.776z"/>
				</g>
				<g>
					<path style="fill:#4C352D;" d="M201.276,231.642c-0.009-0.001-0.018,0.002-0.028,0.002c-0.298-0.071-0.954-0.143-1.663,0.325
						c-0.61,0.402-1.377-0.021-1.377-0.021s0.282,1.054,1.69,1.164c-0.001,0.007-0.003,0.013-0.003,0.02
						c-0.057,0.869,0.47,1.61,1.176,1.656c0.706,0.046,1.324-0.621,1.381-1.49C202.508,232.43,201.982,231.688,201.276,231.642z"/>
				</g>
				<g>
					<g>
						<path style="fill:#E87562;" d="M201.996,241.146l0.129-0.386l-0.624-0.208c-0.525-0.175-0.885-0.607-0.963-1.155
							c-0.078-0.548,0.147-1.061,0.601-1.375c0.578-0.399,1.243-0.553,1.249-0.555l0.104-0.024l2.449-6.05l-0.378-0.153l-2.37,5.856
							c-0.227,0.063-0.78,0.24-1.285,0.589c-0.575,0.397-0.871,1.074-0.773,1.768c0.099,0.694,0.573,1.262,1.237,1.484
							L201.996,241.146z"/>
					</g>
				</g>
				<g>
					<path style="fill:#B77548;" d="M231.466,260.71l-2.025-1.35c0,0-11.477,23.798-9.62,49.453l1.857-0.844
						C221.677,307.968,220.495,285.52,231.466,260.71z"/>
				</g>
				<g>
					<path style="fill:#965E38;" d="M216.792,330.065h20.972c3.116,0,5.386-2.954,4.583-5.965l-2.754-10.336
						c-0.553-2.077-2.434-3.522-4.583-3.522H220.42c-2.014,0-3.809,1.272-4.476,3.173l-3.628,10.336
						C211.234,326.836,213.523,330.065,216.792,330.065z"/>
				</g>
				<g>
					<path style="fill:#774C2F;" d="M217.304,316.782v-5.368c0.845-0.736,1.942-1.171,3.115-1.171h14.591
						c1.33,0,2.556,0.554,3.429,1.468v5.071c0,2.249-1.823,4.071-4.071,4.071h-12.993
						C219.127,320.853,217.304,319.03,217.304,316.782z"/>
				</g>
				<g>
					
						<rect x="224.613" y="318.088" transform="matrix(-1 -1.224647e-16 1.224647e-16 -1 454.9539 640.9162)" style="fill:#AF876B;" width="5.728" height="4.741"/>
				</g>
				<g>
					<polygon style="fill:#FFFFFF;" points="143.026,209.37 141.296,207.771 141.467,210.121 139.138,210.477 141.082,211.808 
						139.908,213.851 142.161,213.161 143.026,215.353 143.892,213.161 146.145,213.851 144.97,211.808 146.915,210.477 
						144.585,210.121 144.757,207.771 					"/>
				</g>
				<g>
					<path style="fill:#C6AE7D;" d="M224.887,431.434l6.79-4.619l2.918-8.669l0.184-1.57c0,0,5.381,2.913,6.027,6.753l0.436,2.697
						l-1.771,0.975l-2.909-4.903l-1.528,6.567c-0.025,0.56-0.327,1.07-0.807,1.361l-7.824,4.733
						c-0.294,0.177-0.646,0.167-1.003,0.035C224.001,434.277,223.744,432.392,224.887,431.434z"/>
				</g>
			</g>
			<g>
				<g>
					<g>
						<circle style="fill:#705A61;" cx="265.51" cy="434.496" r="4.948"/>
					</g>
				</g>
				<g>
					<g>
						<circle style="fill:#705A61;" cx="242.525" cy="434.496" r="4.948"/>
					</g>
				</g>
				<g>
					<g>
						
							<rect x="261.36" y="426.994" transform="matrix(-1 -1.224647e-16 1.224647e-16 -1 530.3826 861.3311)" style="fill:#705A61;" width="7.662" height="7.343"/>
					</g>
				</g>
				<g>
					<g>
						
							<rect x="238.375" y="426.994" transform="matrix(-1 -1.224647e-16 1.224647e-16 -1 484.4123 861.3311)" style="fill:#705A61;" width="7.662" height="7.343"/>
					</g>
				</g>
				<g>
					<g>
						<path style="fill:#705A61;" d="M240.033,339.585h27.969v31.48h-27.969V339.585z M265.573,342.015h-23.109v26.621h23.109
							V342.015z"/>
					</g>
				</g>
				<g>
					<g>
						<path style="fill:#E24D71;" d="M240.294,363.091h27.448c5.82,0,10.538,4.718,10.538,10.538v47.912
							c0,5.82-4.718,10.538-10.538,10.538h-27.448c-5.82,0-10.538-4.718-10.538-10.538v-47.912
							C229.756,367.809,234.474,363.091,240.294,363.091z"/>
					</g>
				</g>
				<g>
					<g>
						<g>
							
								<rect x="268.064" y="369.811" transform="matrix(-1 -1.224647e-16 1.224647e-16 -1 538.6829 795.1689)" style="fill:#CE3A64;" width="2.554" height="55.548"/>
						</g>
					</g>
					<g>
						<g>
							
								<rect x="257.849" y="369.811" transform="matrix(-1 -1.224647e-16 1.224647e-16 -1 518.2515 795.1689)" style="fill:#CE3A64;" width="2.554" height="55.548"/>
						</g>
					</g>
					<g>
						<g>
							
								<rect x="247.633" y="369.811" transform="matrix(-1 -1.224647e-16 1.224647e-16 -1 497.8203 795.1689)" style="fill:#CE3A64;" width="2.554" height="55.548"/>
						</g>
					</g>
					<g>
						<g>
							
								<rect x="237.418" y="369.811" transform="matrix(-1 -1.224647e-16 1.224647e-16 -1 477.3891 795.1689)" style="fill:#CE3A64;" width="2.554" height="55.548"/>
						</g>
					</g>
				</g>
				<g>
					<g>
						<path style="fill:#705A61;" d="M240.38,342.715h27.595c0.931,0,1.685-0.755,1.685-1.686v-1.649
							c0-0.931-0.755-1.686-1.685-1.686H240.38c-0.931,0-1.686,0.755-1.686,1.686v1.649
							C238.694,341.961,239.449,342.715,240.38,342.715z"/>
					</g>
				</g>
			</g>
			<g>
				<path style="fill:#4C352D;" d="M207.437,230.596c-0.114-0.398,0.134-0.808,0.538-0.893c1.57-0.332,5.177-0.996,6.504-0.406
					c1.717,0.763,2.671,2.48,2.671,2.48l-3.625-1.526l-5.29,0.853C207.879,231.161,207.536,230.943,207.437,230.596L207.437,230.596
					z"/>
			</g>
			<g>
				<path style="fill:#4C352D;" d="M203.176,230.327c0.114-0.398-0.134-0.808-0.538-0.893c-1.57-0.332-5.177-0.996-6.504-0.406
					c-1.717,0.763-2.671,2.48-2.671,2.48l3.625-1.526l5.29,0.853C202.733,230.893,203.077,230.674,203.176,230.327L203.176,230.327z
					"/>
			</g>
			<g>
				<g>
					<path style="fill:#EF8C7B;" d="M213.636,318.615c0,0-4.288-0.797-6.076-0.173c-1.788,0.623,1.663,2.715,1.663,2.715
						L213.636,318.615z"/>
				</g>
				<g>
					<path style="fill:#FFA895;" d="M204.822,320.14c0.954,0.058,2.394,0.03,3.439-0.51c1.699-0.879,5.376-1.015,5.376-1.015
						l0.544-0.429c1.02-0.805,1.901-1.771,2.606-2.863c3.272-5.064,6.376-12.231,9.098-19.472l1.511-4.764l10.07,1.657l-1.687,4.89
						c-1.947,5.004-4.365,9.894-7.573,14.217c-2.655,3.578-5.918,6.203-9.391,8.917c-0.265,0.207-0.965,0.561-1.116,0.872
						c-1.057,2.188-4.038,3.446-5.898,4.04c-0.961,0.307-2.002,0.219-2.9-0.241c-1.587-0.813-4.092-2.163-4.619-2.846
						c-0.318-0.413-0.454-0.912-0.504-1.361C203.71,320.622,204.209,320.102,204.822,320.14z"/>
				</g>
			</g>
		</g>
		<g>
			<g>
				<g>
					<path style="fill:#383438;" d="M103.576,429.128c0,0,0.148,1.187,0.111,2.448c-0.025,0.854-0.477,1.636-1.201,2.091
						c-1.068,0.672-2.925,1.489-5.59,1.437c-2.835-0.056-4.746-0.527-6.273-2.097c-0.593-0.61-1.101-1.293-1.082-2.144l0.06-2.703
						L103.576,429.128z"/>
				</g>
				<g>
					<path style="fill:#564A56;" d="M100.284,415.845c0,0,0,5.84,1.77,9.202c1.77,3.362,3.362,7.609-3.716,8.317
						c-4.307,0.431-6.583-0.646-7.705-1.554c-0.65-0.527-1.021-1.321-1.062-2.156c-0.059-1.205-0.002-3.233,0.804-4.961
						c1.239-2.654,0.708-10.087,0.708-10.087L100.284,415.845z"/>
				</g>
				<g>
					<path style="fill:#605560;" d="M100.068,415.787c0,0,0,5.566,1.709,8.77c1.709,3.204,3.247,7.252-3.589,7.927
						c-3.978,0.392-6.161-0.528-7.292-1.367c-0.711-0.527-1.138-1.352-1.178-2.236c-0.051-1.156,0.016-3.046,0.78-4.661
						c1.196-2.53,0.684-9.614,0.684-9.614L100.068,415.787z"/>
				</g>
				<g>
					<path style="fill:#6B5F6B;" d="M90.805,427.684c1.946-2.584,5.437-3.903,8.606-3.25c-0.687-1.682-0.496-3.696,0.496-5.218
						c-0.02,3.338,1.454,6.481,2.898,9.491c-1.346-1.69-3.581-2.497-5.741-2.518C94.903,426.168,92.796,426.845,90.805,427.684z"/>
				</g>
			</g>
			<g>
				<g>
					<path style="fill:#383438;" d="M82.043,429.128c0,0,0.148,1.187,0.111,2.448c-0.025,0.854-0.477,1.636-1.201,2.091
						c-1.068,0.672-2.925,1.489-5.59,1.437c-2.835-0.056-4.746-0.527-6.273-2.097c-0.593-0.61-1.101-1.293-1.082-2.144l0.06-2.703
						L82.043,429.128z"/>
				</g>
				<g>
					<path style="fill:#564A56;" d="M78.751,415.845c0,0,0,5.84,1.77,9.202c1.77,3.362,3.362,7.609-3.716,8.317
						c-4.307,0.431-6.583-0.646-7.705-1.554c-0.65-0.527-1.022-1.321-1.062-2.156c-0.059-1.205-0.002-3.233,0.804-4.961
						c1.239-2.654,0.708-10.087,0.708-10.087L78.751,415.845z"/>
				</g>
				<g>
					<path style="fill:#605560;" d="M78.535,415.787c0,0,0,5.566,1.709,8.77c1.709,3.204,3.247,7.252-3.589,7.927
						c-3.977,0.392-6.161-0.528-7.292-1.367c-0.711-0.527-1.138-1.352-1.178-2.236c-0.051-1.156,0.016-3.046,0.78-4.661
						c1.196-2.53,0.684-9.614,0.684-9.614L78.535,415.787z"/>
				</g>
				<g>
					<path style="fill:#6B5F6B;" d="M69.271,427.684c1.946-2.584,5.437-3.903,8.606-3.25c-0.687-1.682-0.496-3.696,0.496-5.218
						c-0.02,3.338,1.454,6.481,2.898,9.491c-1.346-1.69-3.581-2.497-5.741-2.518C73.37,426.168,71.262,426.845,69.271,427.684z"/>
				</g>
			</g>
			<g>
				<g>
					<circle style="fill:#666C6D;" cx="156.166" cy="431.819" r="3.327"/>
				</g>
				<g>
					
						<rect x="153.544" y="423.65" transform="matrix(-1 -1.224647e-16 1.224647e-16 -1 311.9941 854.4153)" style="fill:#666C6D;" width="4.905" height="7.116"/>
				</g>
			</g>
			<g>
				<g>
					<circle style="fill:#666C6D;" cx="139.468" cy="431.819" r="3.327"/>
				</g>
				<g>
					
						<rect x="136.847" y="423.65" transform="matrix(-1 -1.224647e-16 1.224647e-16 -1 278.5991 854.4153)" style="fill:#666C6D;" width="4.905" height="7.116"/>
				</g>
			</g>
			<g>
				<path style="fill:#FFAA55;" d="M155.43,424.056l8.302,0c1.349,0,2.329-1.282,1.975-2.584l-5.887-21.633
					c-0.242-0.891-1.051-1.509-1.975-1.509h-8.302c-1.349,0-2.329,1.282-1.975,2.584l5.887,21.632
					C153.698,423.438,154.507,424.056,155.43,424.056z"/>
			</g>
			<g>
				<path style="fill:#FFAA55;" d="M145.933,390.95h8.302c1.349,0,2.329-1.282,1.975-2.584l-2.9-9.8
					c-0.242-0.891-1.051-1.509-1.975-1.509h-8.302c-1.349,0-2.329,1.282-1.975,2.584l2.9,9.8
					C144.2,390.332,145.009,390.95,145.933,390.95z"/>
			</g>
			<g>
				<polygon style="fill:#666C6D;" points="121.872,372.118 125.583,371.283 115.112,322.125 111.401,322.961 				"/>
			</g>
			<g>
				<g>
					<path style="fill:#F4C951;" d="M82.128,302.804h13.696c7.698,0,13.996-6.298,13.996-13.996v-25.819
						c0-7.698-6.298-13.996-13.996-13.996H82.128c-7.698,0-13.996,6.298-13.996,13.996v25.819
						C68.132,296.505,74.43,302.804,82.128,302.804z"/>
				</g>
				<g>
					<path style="fill:#A09D9C;" d="M71.72,257.862h34.808c3.112,0,5.658-2.546,5.658-5.658v-5.537c0-3.112-2.546-5.658-5.658-5.658
						H71.72c-3.112,0-5.658,2.546-5.658,5.658v5.537C66.063,255.316,68.609,257.862,71.72,257.862z"/>
				</g>
			</g>
			<g>
				<path style="fill:#FFA895;" d="M118.767,312.569c0,0,1.381,9.678,1.097,11.126c-0.283,1.447-5.605,7.439-5.605,7.439
					s-1.752,1.581-2.772,1.11c-1.02-0.47-0.069-2.719,0.818-3.717c0.887-0.998,2.8-5.704,2.8-5.704l-0.223-3.771l-2.244,3.017
					l-0.599,3.52c0,0-1.084,0.78-1.437-0.492c-0.352-1.271-0.357-5.24-0.357-5.24l1.877-8.048c0,0-4.525-17.568-4.297-30.087
					l-1.628-25.146l8.199-1.039c0,0,2.427,13.7,2.055,24.959C116.451,280.496,118.936,297.123,118.767,312.569z"/>
			</g>
			<g>
				<g>
					<g>
						<path style="fill:#FFA895;" d="M26.053,275.489c0,0,11.705,17.619,22.931,22.15c0.636,0.257,1.36,0.125,1.876-0.327
							c3.281-2.87,15.372-14.32,22.475-32.882l2.264-13.348c0,0-9.901-1.332-11.911,6.554c-1.784,7-12.332,23.761-14.68,27.44
							c-0.253,0.397-0.783,0.507-1.174,0.245L31.45,273.072l-4.127,0.76L26.053,275.489z"/>
					</g>
				</g>
				<g>
					<path style="fill:#FFA895;" d="M31.547,275.049c0,0,3.191-1.975,3.646-5.166c0.355-2.484,0.71-5.705,0.849-7.01
						c0.044-0.407-0.234-0.785-0.638-0.851c-0.597-0.098-1.429,0.09-1.883,1.632c-0.76,2.583-1.519,4.558-1.519,4.558
						s0.912-10.331,0.152-10.787c-0.76-0.456-1.975,1.064-2.431,4.406c-0.456,3.342-0.76,4.862-0.76,4.862s0.456-9.116,0-10.332
						c-0.456-1.215-1.975-0.608-2.279,1.519c-0.304,2.127-0.456,7.901-0.456,7.901s-0.417-7.092-0.912-7.445
						c-1.064-0.76-2.127-0.304-1.519,7.293l0.304,2.279c0,0-1.368-5.47-1.975-5.318c-1.587,0.397-0.912,1.823-0.456,4.862
						c0.456,3.039,2.279,6.837,2.279,6.837l0.192,0.266c1.057,1.464,2.952,2.058,4.656,1.459L31.547,275.049z"/>
				</g>
			</g>
			<g>
				<path style="fill:#FFA895;" d="M95.179,243.815c0,0-5.242-2.501-11.876,0l-0.081,6.899l13.428,0.959L95.179,243.815z"/>
			</g>
			<g>
				<path style="fill:#9B6642;" d="M91.621,198.031c3.148,2.593,7.675,2.087,11.204,3.921c2.839,1.475,5.455,4.127,6.296,7.292
					c1.001,3.763-1.914,6.138-1.86,9.775c0.046,3.135,2.649,4.78,4.044,7.271c2.447,4.369-0.954,5.495-1.01,9.65
					c-0.03,2.24,2.068,3.88,2.905,5.957c0.961,2.382,0.179,5.072-0.607,7.517c-0.707,2.198-1.566,4.592-3.567,5.744
					c-1.512,0.871-3.361,0.835-5.104,0.774c-13.039-0.453-26.079-0.905-39.118-1.358c1.503-0.599,1.507-2.812,0.697-4.213
					c-0.81-1.401-2.145-2.51-2.63-4.054c-0.954-3.038,1.746-6.006,1.996-9.181c0.336-4.266-3.781-8.183-2.752-12.337
					c0.605-2.445,2.852-4.15,3.803-6.483c1.619-3.972,1.168-8.724,3.408-12.382c2.029-3.314,5.167-1.036,7.794-3.895
					c1.596-1.737,2.128-3.644,4.291-4.791c2.309-1.225,5.18-1.803,7.694-0.885C89.923,196.649,90.761,197.322,91.621,198.031z"/>
			</g>
			<g>
				<path style="fill:#C14D4D;" d="M95.179,243.815c0,0-5.054-2.045-11.876,0l0.716,5.84l7.436,0.991L95.179,243.815z"/>
			</g>
			<g>
				
					<rect x="85.776" y="231.627" transform="matrix(-1 -1.224647e-16 1.224647e-16 -1 178.3431 484.6996)" style="fill:#FFA895;" width="6.791" height="21.445"/>
			</g>
			<g>
				<g>
					<path style="fill:#2D2A2A;" d="M71.051,307.935c-3.884-3.838-2.685-7.653-1.509-9.134l1.735,1.365
						c-0.217,0.285-2.029,2.884,1.326,6.199L71.051,307.935z"/>
				</g>
			</g>
			<g>
				<g>
					<path style="fill:#2D2A2A;" d="M107.095,307.935c3.884-3.838,2.685-7.653,1.509-9.134l-1.735,1.365
						c0.217,0.285,2.029,2.884-1.326,6.199L107.095,307.935z"/>
				</g>
			</g>
			<g>
				<path style="fill:#7B93AA;" d="M72.032,361.428c0,0-7.538-28.108-2.563-49.743l1.531-6.5l8.984-4.518l26.17,1.506l1.149,3.564
					c1.826,5.664,3.085,12.922,2.911,18.852c-0.457,15.6-7.616,39.413-7.616,39.413c1.93,23.165,0.104,48.562-1.418,55.107H89.59
					l-1.064-92.84L79.81,419.48H69.254C69.254,419.48,68.492,384.593,72.032,361.428z"/>
			</g>
			<g>
				<g>
					<path style="fill:#8CA8BF;" d="M89.226,322.651c0.01-0.117,1.028-11.794-0.715-19.804l-0.539,0.117
						c1.725,7.926,0.715,19.521,0.704,19.637L89.226,322.651z"/>
				</g>
			</g>
			<g>
				<path style="fill:#D85959;" d="M73.906,289.293l-3.317-17.326l-10.342-6.544c0,0,2.725-14.83,8.749-16.712
					s7.53-2.259,7.53-2.259l6.777-2.635l0,0c2.685,4.492,9.191,4.492,11.876,0l0,0l6.777,2.635c0,0,1.556,0.223,7.53,2.259
					c7.057,2.405,7.679,17.957,7.679,17.957l-9.272,5.3l-3.317,17.326c-0.541,2.826-0.359,5.742,0.528,8.479l4.711,14.532H89.241
					H68.667l4.711-14.532C74.265,295.035,74.447,292.118,73.906,289.293z"/>
			</g>
			<g>
				<path style="fill:#C14D4D;" d="M73.993,261.301c-0.1-4.003-0.745-8.337-2.526-12.061c-0.03-0.078-0.063-0.156-0.094-0.235
					c0.783,1.046,9.865,13.433,9.377,24.654c-0.474,10.911,20.9,6.814,23.875,6.191c0.155-0.032,0.286,0.111,0.243,0.263
					c-0.2,0.696-0.647,2.354-0.835,3.83c-0.087,0.68-0.668,1.186-1.353,1.186H84.017c-3.235,0-5.967,2.394-6.396,5.6
					c-0.122,0.916-0.22,3.042-0.276,5.41c-0.138,5.824-2.706,11.345-7.143,15.121c-0.816,0.695-1.431,1.12-1.639,1.003
					c0,0,10.501-26.485,4.137-38.067C72.7,274.197,74.379,268.747,73.993,261.301z"/>
			</g>
			<g>
				<g>
					<path style="fill:#A09D9C;" d="M104.715,295.59c0.144,0,0.29-0.014,0.437-0.041c1.273-0.24,2.11-1.466,1.87-2.739
						c-4.355-23.102,1.581-43.894,1.641-44.101c0.362-1.243-0.351-2.546-1.594-2.909c-1.243-0.364-2.545,0.349-2.909,1.592
						c-0.26,0.888-6.32,22.038-1.749,46.287C102.625,294.805,103.61,295.59,104.715,295.59z"/>
				</g>
			</g>
			<g>
				<g>
					<g>
						<path style="fill:#4F4E4E;" d="M107.396,301.068l1.988-0.961c-6.305-13.04-6.234-25.352-5.219-34.389
							c1.101-9.805,3.532-17.763,3.559-17.83l-2.056-0.805c-0.112,0.285-2.564,8.298-3.697,18.389
							C100.924,274.798,100.862,287.554,107.396,301.068z"/>
					</g>
				</g>
			</g>
			<g>
				<g>
					<path style="fill:#A09D9C;" d="M73.431,295.59c-0.144,0-0.29-0.014-0.437-0.041c-1.273-0.24-2.11-1.466-1.87-2.739
						c4.355-23.102-1.581-43.894-1.641-44.101c-0.362-1.243,0.351-2.546,1.594-2.909c1.243-0.364,2.545,0.349,2.909,1.592
						c0.26,0.888,6.32,22.038,1.749,46.287C75.521,294.805,74.536,295.59,73.431,295.59z"/>
				</g>
			</g>
			<g>
				<g>
					<g>
						<path style="fill:#4F4E4E;" d="M70.75,301.068l-1.988-0.961c6.305-13.04,6.234-25.352,5.219-34.389
							c-1.101-9.805-3.532-17.763-3.559-17.83l2.056-0.805c0.111,0.285,2.564,8.298,3.697,18.389
							C77.222,274.798,77.284,287.554,70.75,301.068z"/>
					</g>
				</g>
			</g>
			<g>
				<path style="fill:#FFA895;" d="M89.262,206.965c0.015,0,0.029,0.001,0.044,0.001s0.029-0.001,0.044-0.001
					c7.698,0,13.939,6.881,13.939,15.369c0,8.234-8.576,15.459-13.984,15.885c-5.408-0.426-13.984-7.651-13.984-15.885
					C75.322,213.846,81.563,206.965,89.262,206.965z"/>
			</g>
			<g>
				<path style="fill:#FFA895;" d="M100.177,222.679c0,1.673,1.26,3.03,2.813,3.03c1.554,0,2.813-1.357,2.813-3.03
					c0-1.673-1.26-3.03-2.813-3.03C101.437,219.649,100.177,221.006,100.177,222.679z"/>
			</g>
			<g>
				<path style="fill:#57384D;" d="M110.585,323.085c0,1.504,1.22,2.724,2.724,2.724c1.504,0,2.724-1.22,2.724-2.724
					s-1.22-2.724-2.724-2.724C111.805,320.361,110.585,321.58,110.585,323.085z"/>
			</g>
			<g>
				<path style="fill:#FF9624;" d="M136.421,429.208h19.639c3.191,0,5.51-3.034,4.672-6.113l-13.927-51.173
					c-0.574-2.108-2.487-3.57-4.672-3.57l-19.639,0c-3.191,0-5.51,3.034-4.672,6.113l13.927,51.173
					C132.323,427.745,134.237,429.208,136.421,429.208z"/>
			</g>
			<g>
				<polygon style="fill:#F78716;" points="134.124,368.351 150.543,429.208 147.922,429.208 131.503,368.351 				"/>
			</g>
			<g>
				<path style="fill:#F78716;" d="M137.128,429.208l6.702,0l-16.562-60.857l-3.563,0c-3.801,0-6.563,3.613-5.565,7.281
					l13.423,49.323C132.247,427.466,134.526,429.208,137.128,429.208z"/>
			</g>
			<g>
				<path style="fill:#9B6642;" d="M95.701,211.275c0.024-0.028,0.05-0.056,0.079-0.084c-0.048,1.144-0.698,2.246-1.677,2.841
					c-1.467,0.891-3.208,0.274-4.785,0.076c-1.394-0.174-2.971-0.106-3.975,0.877c-1.107,1.084-1.169,2.952-2.336,3.972
					c-1.994,1.743-5.526-0.222-7.612,1.411c-1.806,1.413-2.015,4.442-1.27,6.61c0.745,2.169,2.23,4.042,2.84,6.252
					c0.611,2.21-0.116,5.124-2.329,5.724c1.276-1.914-0.084-4.511-1.774-6.072c-1.69-1.561-3.833-2.881-4.55-5.067
					c-0.748-2.279,0.316-4.716,1.356-6.878c1.804-3.75,3.609-7.499,5.413-11.249c1.318-2.738,2.684-5.544,4.907-7.616
					c4.99-4.65,13.97-3.884,18.099,1.546c2.6,0.596,5.732,1.597,6.947,3.971c1.215,2.375,1.322,5.288,0.285,7.745
					c-0.812,1.924-2.301,3.651-2.382,5.738c-0.084,2.184,1.405,4.102,1.873,6.237c0.636,2.898-0.873,6.131-3.503,7.505
					c1.431-1.021,1.813-3.044,1.454-4.765c-0.359-1.721-1.306-3.25-2.091-4.823c-0.785-1.573-1.43-3.33-1.116-5.059
					c0.195-1.075,0.747-2.051,1.062-3.097c0.466-1.549-0.164-2.84-1.464-3.696C98.579,212.997,94.629,212.503,95.701,211.275z"/>
			</g>
			<g>
				<path style="fill:#FFA895;" d="M73.125,222.679c0,1.673,1.26,3.03,2.813,3.03s2.813-1.357,2.813-3.03
					c0-1.673-1.26-3.03-2.813-3.03S73.125,221.006,73.125,222.679z"/>
			</g>
			<g>
				<path style="fill:#9B6642;" d="M94.84,219.462c0.009,0,0.017,0.003,0.026,0.003c0.279-0.047,0.888-0.074,1.513,0.399
					c0.538,0.408,1.27,0.063,1.27,0.063s-0.323,0.954-1.627,0.971c0,0.006,0.002,0.012,0.002,0.018c0,0.804-0.53,1.456-1.183,1.456
					c-0.653,0-1.183-0.652-1.183-1.456C93.657,220.113,94.187,219.462,94.84,219.462z"/>
			</g>
			<g>
				<path style="fill:#9B6642;" d="M82.546,219.462c-0.009,0-0.017,0.003-0.026,0.003c-0.279-0.047-0.888-0.074-1.513,0.399
					c-0.538,0.408-1.27,0.063-1.27,0.063s0.323,0.954,1.627,0.971c0,0.006-0.001,0.012-0.001,0.018c0,0.804,0.53,1.456,1.183,1.456
					c0.653,0,1.183-0.652,1.183-1.456C83.729,220.113,83.2,219.462,82.546,219.462z"/>
			</g>
			<g>
				<g>
					<path style="fill:#EA8C7D;" d="M89.495,227.253l-0.019-0.375l-0.606,0.031c-0.51,0.026-0.965-0.224-1.217-0.669
						c-0.252-0.445-0.231-0.962,0.054-1.385c0.363-0.538,0.882-0.894,0.887-0.897l0.081-0.055l0.067-6.027l-0.376-0.004
						l-0.065,5.834c-0.174,0.131-0.589,0.469-0.907,0.94c-0.361,0.535-0.387,1.217-0.069,1.78c0.319,0.563,0.918,0.892,1.563,0.859
						L89.495,227.253z"/>
				</g>
			</g>
			<g>
				<path style="fill:#9B6642;" d="M92.518,217.885c-0.105-0.367,0.124-0.746,0.497-0.825c1.449-0.307,4.781-0.92,6.006-0.375
					c1.586,0.705,2.467,2.29,2.467,2.29l-3.348-1.41l-4.885,0.788C92.926,218.408,92.609,218.206,92.518,217.885L92.518,217.885z"/>
			</g>
			<g>
				<path style="fill:#9B6642;" d="M86.134,217.885c0.105-0.367-0.123-0.746-0.497-0.825c-1.449-0.307-4.78-0.92-6.006-0.375
					c-1.586,0.705-2.467,2.29-2.467,2.29l3.348-1.41l4.885,0.788C85.725,218.408,86.042,218.206,86.134,217.885L86.134,217.885z"/>
			</g>
			<g>
				<path style="fill:#C1584D;" d="M89.279,232.585c1.873,0,3.533-1.028,4.278-2.674c0.142-0.313,0.003-0.682-0.31-0.824
					c-0.313-0.142-0.682-0.004-0.824,0.311c-0.569,1.258-1.897,2.013-3.358,1.937c-1.112-0.061-2.477-0.666-2.971-2.181
					c-0.107-0.326-0.456-0.507-0.785-0.398c-0.327,0.106-0.505,0.458-0.399,0.785c0.577,1.767,2.143,2.93,4.087,3.037
					C89.091,232.583,89.185,232.585,89.279,232.585z"/>
			</g>
		</g>
		<g>
			<g>
				<path style="fill:#67CEA4;" d="M313.701,318.658h-13.854c-15.637,0-28.314-12.677-28.314-28.314v-46.221
					c0-15.637,12.677-28.314,28.314-28.314h13.854V318.658z"/>
			</g>
			<g>
				<path style="fill:#50B288;" d="M313.185,318.658h-10.885c-12.287,0-22.247-9.96-22.247-22.247v-58.355
					c0-12.287,9.96-22.247,22.247-22.247h10.885V318.658z"/>
			</g>
			<g>
				<path style="fill:#597F6F;" d="M316.895,240.054h-40.096c-5.257,0-9.518-4.261-9.518-9.518v-9.314
					c0-5.257,4.261-9.518,9.518-9.518h40.096V240.054z"/>
			</g>
			<g>
				<g>
					<path style="fill:#F29E8F;" d="M352.457,230.753c0,0-0.28-4.819,3.187-5.678c3.467-0.86,7.367-7.001,7.367-7.001
						s2.218-6.997,1.635-9.446c-0.281-1.183,0.159-0.634-0.707-0.796c-0.869-0.163-1.601,0.657-1.343,1.504l0.345,1.135
						l-4.993,2.058l-5.063,0.241c0,0,0.157,4.602,0.949,1.021c0.792-3.58-1.714-3.824-1.714-3.824
						c-0.272,2.093-4.062,7.33-6.398,9.565c-2.336,2.234,0.096,7.461,0.096,7.461l1.007,6.24L352.457,230.753z"/>
				</g>
				<g>
					<path style="fill:#A3C6D6;" d="M308.82,232.294c-3.153,1.779-4.508,4.771-1.295,13.207c0,0,9.585,24.443,35.814,27.052
						c0.824,0.082,1.528-0.632,1.809-1.411l3.355-7.668c3.294-7.624,4.698-17.965,6.26-26.123l0.854-10.154l-12.358-3.433
						c0,0-4.806,15.104-5.263,32.497c0,0-11.384-16.505-21.603-22.981C314.003,231.765,311.283,230.904,308.82,232.294z"/>
				</g>
			</g>
			<g>
				<g>
					<polygon style="fill:#FFA895;" points="337.913,417.718 338.306,425.909 328.438,425.909 328.19,416.08 					"/>
				</g>
				<g>
					<g>
						<g>
							<path style="fill:#684229;" d="M332.734,424.804c0,0,1.529-4.017,6.115-2.892c0,0,3.516,4.017,6.115,4.981
								c2.599,0.964,8.103,0,8.103,4.178v1.446h-25.684v-8.997C327.383,423.519,331.511,422.073,332.734,424.804z"/>
						</g>
					</g>
					<g>
						
							<rect x="327.078" y="431.958" transform="matrix(-1 -1.224647e-16 1.224647e-16 -1 680.4502 864.9818)" style="fill:#B9BFC1;" width="26.295" height="1.065"/>
					</g>
					<g>
						<g>
							<g>
								<path style="fill:#B9BFC1;" d="M341.346,424.428c0.101,0.092,0.214,0.192,0.333,0.297c-0.422,0.097-1.642,0.481-2.212,1.766
									l-0.322-0.158C339.696,425.094,340.749,424.61,341.346,424.428z"/>
							</g>
						</g>
						<g>
							<g>
								<path style="fill:#B9BFC1;" d="M342.572,425.472c0.105,0.083,0.212,0.166,0.32,0.248c-0.342,0.174-1.506,0.864-1.762,2.311
									l-0.349-0.068C341.037,426.518,342.063,425.764,342.572,425.472z"/>
							</g>
						</g>
						<g>
							<g>
								<path style="fill:#B9BFC1;" d="M343.89,426.403c0.117,0.07,0.232,0.135,0.346,0.195c-0.341,0.26-1.325,1.13-1.354,2.559
									l-0.355-0.008C342.556,427.703,343.426,426.789,343.89,426.403z"/>
							</g>
						</g>
					</g>
				</g>
			</g>
			<g>
				<g>
					<polygon style="fill:#FFA895;" points="318.214,417.718 318.949,425.909 309.081,425.909 308.491,416.08 					"/>
				</g>
				<g>
					<g>
						<g>
							<path style="fill:#7C5133;" d="M313.377,424.804c0,0,1.529-4.017,6.115-2.892c0,0,3.516,4.017,6.115,4.981
								c2.599,0.964,8.103,0,8.103,4.178v1.446h-25.683v-8.997C308.026,423.519,312.154,422.073,313.377,424.804z"/>
						</g>
					</g>
					<g>
						
							<rect x="307.72" y="431.958" transform="matrix(-1 -1.224647e-16 1.224647e-16 -1 641.736 864.9818)" style="fill:#B9BFC1;" width="26.295" height="1.065"/>
					</g>
					<g>
						<g>
							<g>
								<path style="fill:#B9BFC1;" d="M321.989,424.428c0.101,0.092,0.214,0.192,0.333,0.297c-0.422,0.097-1.642,0.481-2.212,1.766
									l-0.322-0.158C320.339,425.094,321.392,424.61,321.989,424.428z"/>
							</g>
						</g>
						<g>
							<g>
								<path style="fill:#B9BFC1;" d="M323.215,425.472c0.105,0.083,0.212,0.166,0.32,0.248c-0.342,0.174-1.506,0.864-1.762,2.311
									l-0.349-0.068C321.68,426.518,322.706,425.764,323.215,425.472z"/>
							</g>
						</g>
						<g>
							<g>
								<path style="fill:#B9BFC1;" d="M324.533,426.403c0.117,0.07,0.232,0.135,0.346,0.195c-0.341,0.26-1.325,1.13-1.354,2.559
									l-0.355-0.008C323.199,427.703,324.069,426.789,324.533,426.403z"/>
							</g>
						</g>
					</g>
				</g>
			</g>
			<g>
				<path style="fill:#525A5B;" d="M339.189,420.182h-12.41l-5.225-72.864l-5.194-14.71c-8.289-30.063,6.25-44.617,6.25-44.617
					l11.056,3.378l8.234,59.848c0.201,2.364,0.206,4.74,0.014,7.105L339.189,420.182z"/>
			</g>
			<g>
				<path style="fill:#FFFFFF;" d="M305.459,310.311c0,0-3.425,1.611-7.579,0c0,0-0.311,3.945,3.945,4.153
					C301.826,314.464,305.356,314.672,305.459,310.311z"/>
			</g>
			<g>
				<path style="fill:#666C6D;" d="M323.555,350.27l-3.861-59.863l-12.039-3.651c0,0-14.884,1.679-9.254,44.385l9.091,88.642h12.285
					l3.647-62.409C323.664,355.014,323.708,352.638,323.555,350.27z"/>
			</g>
			<g>
				<path style="fill:#B57947;" d="M300.256,210.37c0,0-1.999,8.33,7.997,8.33l1-9.329L300.256,210.37z"/>
			</g>
			<g>
				<ellipse style="fill:#FFA895;" cx="313.731" cy="236.549" rx="17.167" ry="11.519"/>
			</g>
			<g>
				<ellipse style="fill:#B57947;" cx="312.372" cy="202.514" rx="13.935" ry="12.869"/>
			</g>
			<g>
				
					<ellipse transform="matrix(0.9859 -0.1671 0.1671 0.9859 -30.1214 56.1538)" style="fill:#FFA895;" cx="318.717" cy="207.119" rx="14.428" ry="16.549"/>
			</g>
			<g>
				<path style="fill:#B57947;" d="M314.969,193.315c-0.529,2.078,1.57,4.003,3.74,4.584c2.17,0.581,4.501,0.332,6.697,0.815
					c3.106,0.683,5.786,2.909,6.908,5.739c1.049-3.758,2.109-7.889,1.835-11.768c-0.275-3.878-2.896-9.326-6.44-11.28
					c-7.099-3.914-16.118-3.841-22.127,2.167c-7.45-0.532-10.449,6.808-10.412,13.131c0.024,4.078,1.59,8.063,3.964,11.463
					c0.803-4.962,5.149-9.349,10.065-11.212C311.257,196.174,313.787,195.096,314.969,193.315z"/>
			</g>
			<g>
				
					<rect x="308.185" y="209.712" transform="matrix(-1 -1.224647e-16 1.224647e-16 -1 626.1341 441.9429)" style="fill:#FFA895;" width="9.764" height="22.52"/>
			</g>
			<g>
				<path style="fill:#B57947;" d="M310.251,194.376c0,0,0.333,9.329-6.331,9.996l-2.999-2.999
					C300.922,201.373,307.586,195.376,310.251,194.376z"/>
			</g>
			<g>
				<path style="fill:#E4F0F9;" d="M294.858,234.062c1.229-3.038,6.568-6.112,10.587-7.602c0.009,3.066,3.715,5.549,8.286,5.549
					c4.571,0,8.277-2.484,8.286-5.549c0,0,5.87-0.224,15.906,6.085l-2.461,70.998h-38.868l3.22-21.66
					c-0.14-9.772-0.86-20.009-2.921-29.563l-2.167-10.045C294.725,242.274,291.926,236.126,294.858,234.062z"/>
			</g>
			<g>
				<path style="fill:#BFD4E0;" d="M304.686,279.131l-2.341,24.412h-5.752l3.22-21.66c-0.14-9.772-0.86-20.009-2.921-29.563
					l-2.167-10.045c0,0-0.078-1.067,0.014-2.479C298.19,247.358,304.686,263.65,304.686,279.131z"/>
			</g>
			<g>
				<g>
					<path style="fill:#E87562;" d="M322.317,214.639l-0.042-0.433l0.701-0.068c0.589-0.058,1.068-0.422,1.28-0.976
						c0.212-0.553,0.1-1.143-0.3-1.578c-0.508-0.554-1.165-0.873-1.171-0.876l-0.103-0.049l-1.113-6.896l0.43-0.069l1.078,6.675
						c0.222,0.12,0.756,0.437,1.201,0.921c0.505,0.551,0.653,1.329,0.385,2.028c-0.269,0.7-0.898,1.181-1.644,1.253L322.317,214.639
						z"/>
				</g>
			</g>
			<g>
				<g>
					<g>
						<path style="fill:#597F6F;" d="M294.836,286.997v-5.243c3.769,0,9.247-4.089,11.059-8.256
							c4.718-10.852,4.124-21.112-1.764-30.496c-4.447-7.087-10.294-10.949-10.353-10.987l2.864-4.391
							c0.278,0.182,6.877,4.54,11.93,12.592c4.719,7.52,8.919,19.762,2.131,35.374C308.357,280.985,301.263,286.997,294.836,286.997
							z"/>
					</g>
				</g>
				<g>
					<rect x="291.116" y="279.356" style="fill:#597F6F;" width="6.141" height="11.463"/>
				</g>
			</g>
			<g>
				<path style="fill:#50B288;" d="M280.184,299.884h-3.817c-4.309,0-7.802-3.493-7.802-7.802v-14.981h11.619V299.884z"/>
			</g>
			<g>
				<path style="fill:#B57947;" d="M314.559,189.221c0.451,2.199,0.902,4.471,0.447,6.668c-0.455,2.198-2.062,4.32-4.282,4.649
					c0.738-2.612-0.211-5.621-2.315-7.336C309.579,190.838,311.923,189.33,314.559,189.221z"/>
			</g>
			<g>
				<path style="fill:#FFA895;" d="M298.771,208.485c0,2.278,1.847,4.125,4.125,4.125s4.125-1.847,4.125-4.125
					c0-2.278-1.847-4.125-4.125-4.125S298.771,206.207,298.771,208.485z"/>
			</g>
			<g>
				<path style="fill:#B57947;" d="M319.352,202.818c0.137-0.479-0.161-0.972-0.648-1.076c-1.89-0.4-6.784-0.922-8.79-0.142
					c-2.109,0.82-2.257,2.64-2.257,2.64l4.04-0.745l6.694-0.065C318.819,203.499,319.233,203.236,319.352,202.818L319.352,202.818z"
					/>
			</g>
			<g>
				<path style="fill:#B57947;" d="M322.583,203.08c-0.181-0.373-0.007-0.82,0.377-0.974c1.491-0.598,4.934-1.874,6.344-1.52
					c1.825,0.457,3.061,1.986,3.061,1.986l-3.731-0.191l-5.176,1.063C323.116,203.561,322.74,203.406,322.583,203.08L322.583,203.08
					z"/>
			</g>
			<g>
				<g>
					<path style="fill:#DD925F;" d="M316.454,216.985c2.724,3.131,7.35,3.166,10.141,0.105c0.675-0.74-0.423-1.844-1.101-1.101
						c-2.253,2.47-5.751,2.41-7.94-0.105C316.894,215.126,315.798,216.232,316.454,216.985L316.454,216.985z"/>
				</g>
			</g>
			<g>
				<g>
					<g>
						<path style="fill:#A1C0CE;" d="M328.805,203.319c-1.57,0-2.843,1.971-2.843,4.402c0,2.431,1.273,4.402,2.843,4.402
							l16.018,1.467v-11.738L328.805,203.319z"/>
					</g>
					<g>
						<ellipse style="fill:#405C66;" cx="360.617" cy="207.721" rx="5.209" ry="8.065"/>
					</g>
					<g>
						<path style="fill:#405C66;" d="M338.606,201.672c-2.158,0-3.907,2.708-3.907,6.049c0,3.341,1.749,6.049,3.907,6.049
							l22.011,2.016v-16.131L338.606,201.672z"/>
					</g>
					<g>
						<path style="fill:#FFFFFF;" d="M360.617,214.625c-2.194,0-4.048-3.162-4.048-6.905c0-3.742,1.854-6.904,4.048-6.904
							c2.194,0,4.048,3.162,4.048,6.904C364.665,211.464,362.811,214.625,360.617,214.625z"/>
					</g>
				</g>
				<g>
					<g>
						<path style="fill:#425E68;" d="M315.362,204.831c-1.57,0-2.843,1.971-2.843,4.402c0,2.431,1.273,4.402,2.843,4.402
							l16.018,1.467v-11.738L315.362,204.831z"/>
					</g>
					<g>
						<ellipse style="fill:#526E7A;" cx="347.175" cy="209.233" rx="5.209" ry="8.065"/>
					</g>
					<g>
						<path style="fill:#526E7A;" d="M325.163,203.184c-2.158,0-3.907,2.708-3.907,6.049c0,3.341,1.749,6.049,3.907,6.049
							l22.011,2.016v-16.131L325.163,203.184z"/>
					</g>
					<g>
						<path style="fill:#FFFFFF;" d="M347.175,216.138c-2.194,0-4.048-3.162-4.048-6.905c0-3.743,1.854-6.904,4.048-6.904
							c2.194,0,4.048,3.162,4.048,6.904C351.223,212.976,349.369,216.138,347.175,216.138z"/>
					</g>
				</g>
			</g>
			<g>
				<g>
					<path style="fill:#FFA895;" d="M334.733,231.462c0,0,1.444-4.749,4.933-4.293c3.488,0.457,10.121-2.543,10.121-2.543
						s4.508-5.923,4.838-8.5c0.159-1.245-0.513-2.028-1.25-2.505c-0.741-0.479-1.674-0.321-2.231,0.794l-1.026,1.557l-1.299,1.399
						c-1.513,1.629-3.756,2.367-5.941,1.953l-2.881-0.545c0,0,0,0,1.992-3.158c1.992-3.158-0.224-4.321-0.224-4.321
						c-0.988,1.917-6.319,5.561-9.254,6.849c-2.935,1.288-2.547,7.228-2.547,7.228l-1.279,6.389L334.733,231.462z"/>
				</g>
				<g>
					<path style="fill:#BFD4E0;" d="M295.971,232.294c-3.004,1.779-4.295,4.771-1.233,13.207c0,0,9.133,24.443,34.122,27.052
						c0.785,0.082,1.456-0.632,1.724-1.411l3.197-7.668c3.139-7.624,4.476-17.965,5.964-26.123l0.814-10.154l-11.774-3.433
						c0,0-4.579,15.104-5.015,32.497c0,0-10.846-16.505-20.583-22.981C300.909,231.765,298.318,230.904,295.971,232.294z"/>
				</g>
			</g>
		</g>
		<g>
			<g>
				<path style="fill:#E24D71;" d="M406.841,302.583h-9.527c-10.754,0-19.471-8.717-19.471-19.471v-31.045
					c0-10.754,8.717-19.471,19.471-19.471h9.527V302.583z"/>
			</g>
			<g>
				<path style="fill:#727C78;" d="M386.184,302.583h20.657v-18.161h-28.998v9.819C377.842,298.848,381.577,302.583,386.184,302.583
					z"/>
			</g>
			<g>
				<path style="fill:#C17744;" d="M428.116,201.36c-2.298-4.565-6.809-7.949-11.835-8.877c-5.025-0.928-10.448,0.621-14.225,4.064
					c-5.467,0.358-10.262,4.818-10.741,10.275c-0.363,4.131,1.493,8.226,1.081,12.352c-0.389,3.887-2.769,7.538-2.293,11.416
					c0.276,2.248,1.487,4.255,2.268,6.381c0.781,2.126,1.064,4.712-0.343,6.487c7.253,1.602,14.662,1.327,21.699-1.051
					c-1.282-8.652,0.943-17.772,6.066-24.86c1.837-2.542,4.025-4.828,5.699-7.48C427.165,207.415,429.526,204.161,428.116,201.36z"
					/>
			</g>
			<g>
				<path style="fill:#F49282;" d="M415.181,356.548c0,0-1.69,31.693,0.845,56.625l0.423,9.719h10.564l5.381-42.374
					c0.918-7.229,1.114-14.532,0.586-21.8l-0.895-12.313L415.181,356.548z"/>
			</g>
			<g>
				<path style="fill:#FFA895;" d="M398.7,356.548c0,0-1.69,31.693,0.845,56.625l0.423,9.719h10.564l5.381-42.374
					c0.918-7.229,1.114-14.532,0.586-21.8l-0.895-12.313L398.7,356.548z"/>
			</g>
			<g>
				<g>
					<path style="fill:#A07355;" d="M412.05,358.285l24.193-0.554l0.021-0.591c0.186-2.365,0.175-4.742-0.032-7.105l-4.532-45.614
						l-12.818-17.519c0,0-17.902,5.19-9.685,53.284L412.05,358.285z"/>
				</g>
				<g>
					
						<rect x="410.4" y="352.733" transform="matrix(0.9997 -0.0229 0.0229 0.9997 -8.0431 9.8011)" style="fill:#B58564;" width="27.143" height="6.786"/>
				</g>
			</g>
			<g>
				<g>
					<path style="fill:#B7896A;" d="M397.254,358.473h24.199l0.035-0.59c0.24-2.36,0.284-4.736,0.131-7.104l-3.861-59.863
						l-12.039-3.651c0,0-18.016,4.779-10.903,53.048L397.254,358.473z"/>
				</g>
				<g>
					<rect x="395.65" y="353.194" style="fill:#C19374;" width="27.143" height="6.786"/>
				</g>
			</g>
			<g>
				<path style="fill:#E1CA62;" d="M462.088,260.387c-3.383,11.686-9.14,16.759-10.692,17.955
					c-2.998-10.829-12.027-40.622-20.468-39.951c0,0-2.69,7.776-1.87,18.087c0.82,10.311,11.207,32.171,11.207,32.171
					c3.22,7.871,8.944,9.302,8.944,9.302c16.457-3.577,24.063-34.189,24.063-34.189L462.088,260.387z"/>
			</g>
			<g>
				<ellipse style="fill:#FFA895;" cx="411.852" cy="246.381" rx="20.32" ry="13.634"/>
			</g>
			<g>
				<g>
					<path style="fill:#F2E28F;" d="M390.053,238.841c0.626-0.387,1.283-0.714,1.976-0.965c2.923-2.046,7.599-3.361,10.568-3.658
						c-0.54,0.442-2.21,2.013-1.964,4.42c0.546,5.349,4.562,8.124,11.732,8.124c7.17,0,12.018-2.494,11.713-8.134
						c-0.098-1.817-1.92-3.75-1.954-4.035c0,0,8.028,1.741,10.916,4.151c0,0,0.214,10.895,1.566,13.329
						c1.352,2.434,5.409,10.818,1.623,17.85c-3.786,7.032-7.904,22.828-4.576,34.809c0,0-18.39,11.28-37.36,0.63
						c0,0,4.884-22.029,0.497-31.875C394.791,273.488,400.386,255.324,390.053,238.841z"/>
				</g>
				<g>
					<path style="fill:#E56363;" d="M393.244,245.184c0,0,0.022,0.029,0.061,0.082c0.035,0.088,0.071,0.175,0.105,0.263
						C393.355,245.413,393.301,245.298,393.244,245.184z"/>
				</g>
				<g>
					<path style="fill:#E1CA62;" d="M396.24,259.04c-0.112-4.484-0.834-9.34-2.83-13.512c-0.034-0.088-0.07-0.175-0.105-0.263
						c0.877,1.172,11.052,15.049,10.505,27.62c-0.531,12.221,23.404,7.636,26.745,6.937c0.174-0.036,0.323,0.124,0.274,0.295
						c-0.223,0.779-0.723,2.629-0.934,4.281c-0.098,0.765-0.745,1.339-1.517,1.339h-20.909c-3.624,0-6.685,2.682-7.165,6.274
						c-0.338,2.525-0.507,13.267-0.232,16.049c-0.904-0.422-4.854-2.178-5.777-2.696c0,0,4.884-22.029,0.497-31.875
						C394.791,273.488,396.672,267.382,396.24,259.04z"/>
				</g>
				<g>
					<path style="fill:#E56363;" d="M394.791,273.488c0,0,1.643-6.662,1.449-14.448
						C396.672,267.382,394.791,273.488,394.791,273.488z"/>
				</g>
			</g>
			<g>
				<g>
					<polygon style="fill:#81C0EF;" points="443.095,295.146 425.804,287.466 425.804,227.667 443.095,235.347 					"/>
				</g>
				<g>
					<polygon style="fill:#6AB0DB;" points="443.095,295.146 460.385,287.466 460.385,227.667 443.095,235.347 					"/>
				</g>
				<g>
					<polygon style="fill:#81C0EF;" points="477.676,295.146 460.385,287.466 460.385,227.667 477.676,235.347 					"/>
				</g>
			</g>
			<g>
				<path style="fill:#FFA895;" d="M478.006,253.733h-6.774c-0.475,0-0.863-0.388-0.863-0.863v-0.844
					c0-0.475,0.388-0.863,0.863-0.863h6.774c0.475,0,0.863,0.388,0.863,0.863v0.844
					C478.869,253.344,478.481,253.733,478.006,253.733z"/>
			</g>
			<g>
				<path style="fill:#FFA895;" d="M478.006,258.815h-6.774c-0.475,0-0.863-0.388-0.863-0.863v-0.844
					c0-0.475,0.388-0.863,0.863-0.863h6.774c0.475,0,0.863,0.388,0.863,0.863v0.844
					C478.869,258.427,478.481,258.815,478.006,258.815z"/>
			</g>
			<g>
				<path style="fill:#FFA895;" d="M478.006,261.357h-5.261c-0.474,0-0.863-0.388-0.863-0.863v-0.844
					c0-0.474,0.388-0.863,0.863-0.863h5.261c0.475,0,0.863,0.388,0.863,0.863v0.844
					C478.869,260.969,478.481,261.357,478.006,261.357z"/>
			</g>
			<g>
				<path style="fill:#FFA895;" d="M478.006,256.238h-7.788c-0.475,0-0.863-0.388-0.863-0.863v-0.844
					c0-0.475,0.388-0.863,0.863-0.863h7.788c0.475,0,0.863,0.388,0.863,0.863v0.844C478.869,255.85,478.481,256.238,478.006,256.238
					z"/>
			</g>
			<g>
				<path style="fill:#FFA895;" d="M428.688,214.489c1.319,7.786-2.903,14.995-9.432,16.101c-6.528,1.106-12.89-4.309-14.21-12.095
					c-1.319-7.786,2.903-14.995,9.432-16.101C421.007,201.288,427.369,206.703,428.688,214.489z"/>
			</g>
			<g>
				
					<rect x="407.39" y="218.404" transform="matrix(-1 -1.224647e-16 1.224647e-16 -1 823.4493 456.8037)" style="fill:#FFA895;" width="8.67" height="19.996"/>
			</g>
			<g>
				<g>
					<path style="fill:#E87562;" d="M420.229,222.775l-0.039-0.401l0.648-0.063c0.545-0.053,0.988-0.391,1.184-0.903
						c0.196-0.512,0.092-1.057-0.277-1.46c-0.47-0.512-1.078-0.808-1.083-0.811l-0.095-0.046l-1.03-6.379l0.398-0.064l0.997,6.175
						c0.205,0.111,0.7,0.404,1.111,0.852c0.467,0.51,0.604,1.229,0.357,1.876c-0.249,0.648-0.831,1.092-1.521,1.16L420.229,222.775z
						"/>
				</g>
			</g>
			<g>
				<g>
					<g>
						<path style="fill:#D85959;" d="M420.237,422.826c0,0,1.652-4.34,6.607-3.124c0,0,3.799,4.34,6.607,5.381
							c2.808,1.042,8.754,0,8.754,4.513v1.562h-27.747v-9.72C414.456,421.438,418.915,419.875,420.237,422.826z"/>
					</g>
				</g>
				<g>
					
						<rect x="414.126" y="430.555" transform="matrix(-1 -1.224647e-16 1.224647e-16 -1 856.6595 862.2615)" style="fill:#C14D4D;" width="28.408" height="1.151"/>
				</g>
				<g>
					<g>
						<g>
							<path style="fill:#C14D4D;" d="M429.541,422.42c0.109,0.1,0.231,0.208,0.36,0.321c-0.456,0.105-1.773,0.519-2.389,1.907
								l-0.348-0.171C427.758,423.139,428.896,422.616,429.541,422.42z"/>
						</g>
					</g>
					<g>
						<g>
							<path style="fill:#C14D4D;" d="M430.865,423.548c0.114,0.09,0.229,0.179,0.346,0.268c-0.37,0.188-1.627,0.934-1.904,2.497
								l-0.377-0.074C429.207,424.678,430.315,423.863,430.865,423.548z"/>
						</g>
					</g>
					<g>
						<g>
							<path style="fill:#C14D4D;" d="M432.289,424.554c0.126,0.076,0.251,0.146,0.374,0.211c-0.369,0.281-1.432,1.221-1.463,2.765
								l-0.384-0.009C430.848,425.958,431.788,424.97,432.289,424.554z"/>
						</g>
					</g>
				</g>
			</g>
			<g>
				<g>
					<g>
						<path style="fill:#E87070;" d="M404.256,422.826c0,0,1.652-4.34,6.606-3.124c0,0,3.799,4.34,6.607,5.381
							c2.808,1.042,8.754,0,8.754,4.513v1.562h-27.747v-9.72C398.476,421.438,402.935,419.875,404.256,422.826z"/>
					</g>
				</g>
				<g>
					
						<rect x="398.145" y="430.555" transform="matrix(-1 -1.224647e-16 1.224647e-16 -1 824.6986 862.2615)" style="fill:#C14D4D;" width="28.408" height="1.151"/>
				</g>
				<g>
					<g>
						<g>
							<path style="fill:#C14D4D;" d="M413.56,422.42c0.109,0.1,0.231,0.208,0.36,0.321c-0.456,0.105-1.773,0.519-2.389,1.907
								l-0.348-0.171C411.778,423.139,412.916,422.616,413.56,422.42z"/>
						</g>
					</g>
					<g>
						<g>
							<path style="fill:#C14D4D;" d="M414.885,423.548c0.114,0.09,0.229,0.179,0.346,0.268c-0.37,0.188-1.627,0.934-1.904,2.497
								l-0.377-0.074C413.226,424.678,414.335,423.863,414.885,423.548z"/>
						</g>
					</g>
					<g>
						<g>
							<path style="fill:#C14D4D;" d="M416.308,424.554c0.126,0.076,0.251,0.146,0.374,0.211c-0.369,0.281-1.432,1.221-1.463,2.765
								l-0.384-0.009C414.867,425.958,415.808,424.97,416.308,424.554z"/>
						</g>
					</g>
				</g>
			</g>
			<g>
				<path style="fill:#C17744;" d="M414.002,211.299c-0.009,0-0.017,0.003-0.026,0.003c-0.279-0.047-0.888-0.074-1.513,0.399
					c-0.538,0.408-1.27,0.063-1.27,0.063s0.323,0.954,1.627,0.971c0,0.006-0.001,0.012-0.001,0.018c0,0.804,0.529,1.456,1.183,1.456
					c0.653,0,1.183-0.652,1.183-1.456C415.185,211.951,414.655,211.299,414.002,211.299z"/>
			</g>
			<g>
				<path style="fill:#C17744;" d="M416.324,209.723c0.105-0.367-0.124-0.746-0.497-0.825c-1.449-0.307-4.781-0.92-6.006-0.375
					c-1.586,0.705-2.467,2.29-2.467,2.29l3.348-1.41l4.885,0.788C415.916,210.245,416.233,210.044,416.324,209.723L416.324,209.723z
					"/>
			</g>
			<g>
				<path style="fill:#C17744;" d="M424.419,211.299c-0.009,0-0.017,0.003-0.026,0.003c-0.279-0.047-0.888-0.074-1.513,0.399
					c-0.538,0.408-1.27,0.063-1.27,0.063s0.323,0.954,1.627,0.971c0,0.006-0.001,0.012-0.001,0.018c0,0.804,0.529,1.456,1.183,1.456
					c0.653,0,1.183-0.652,1.183-1.456C425.602,211.951,425.072,211.299,424.419,211.299z"/>
			</g>
			<g>
				<path style="fill:#C17744;" d="M420.967,209.874c-0.105-0.367,0.124-0.746,0.497-0.825c1.449-0.307,4.78-0.92,6.006-0.375
					c1.586,0.705,2.467,2.29,2.467,2.29l-3.348-1.41l-4.885,0.788C421.375,210.396,421.059,210.195,420.967,209.874L420.967,209.874
					z"/>
			</g>
			<g>
				<path style="fill:#C17744;" d="M425.621,209.811c2.528,1.216,4.1,4.165,3.698,6.942c3.152-3.965,3.489-9.938,0.802-14.231
					s-8.206-6.602-13.15-5.501c-2.065,0.46-4.069,1.516-5.286,3.247c-1.217,1.731-1.494,4.194-0.344,5.97
					c1.38,2.133,4.236,2.706,6.776,2.736C420.658,209.003,423.332,208.71,425.621,209.811z"/>
			</g>
			<g>
				<path style="fill:#C17744;" d="M410.059,201.61c1.106,3.237,0.61,6.98-1.302,9.817c-1.912,2.837-5.194,4.702-8.61,4.892
					c-0.99-3.074,0.139-6.891,2.255-9.331C404.518,204.548,407.247,203.199,410.059,201.61z"/>
			</g>
			<g>
				<path style="fill:#FFA895;" d="M399.962,217.618c0,2.023,1.64,3.663,3.663,3.663s3.663-1.64,3.663-3.663
					c0-2.023-1.64-3.663-3.663-3.663S399.962,215.595,399.962,217.618z"/>
			</g>
			<g>
				<g>
					<g>
						<path style="fill:#727C78;" d="M390.513,289.134v-4.788c3.442,0,8.445-3.734,10.099-7.539
							c4.309-9.91,3.766-19.28-1.611-27.851c-4.061-6.472-9.401-9.999-9.455-10.034l4.074-2.194c0.254,0.166,4.822,2.33,9.436,9.683
							c4.309,6.868,8.145,18.047,1.946,32.305C402.861,283.644,396.383,289.134,390.513,289.134z"/>
					</g>
				</g>
				<g>
					<rect x="387.116" y="282.156" style="fill:#727C78;" width="5.608" height="10.469"/>
				</g>
			</g>
			<g>
				<g>
					<path style="fill:#FFA895;" d="M421.681,263.398l0.953-4l3.048-7.81c0,0,9.524-3.048,11.048-2.667
						c1.524,0.381,1.714,2.857,0.572,4.191c0,0,0.952,1.143-0.19,2.857c0,0,0.381,2.286-0.762,3.048c0,0-0.19,1.714-2.286,1.905
						l-5.524,3.238l-2.095,4l-5.524-1.143L421.681,263.398z"/>
				</g>
				<g>
					<path style="fill:#E1CA62;" d="M421.239,260.765c-3.383,11.686-9.141,16.759-10.692,17.955
						c-2.997-10.829-12.027-40.622-20.468-39.951c0,0-4.433,4.399-3.613,14.71c0.82,10.311,12.949,35.549,12.949,35.549
						c3.22,7.871,8.944,9.302,8.944,9.302c16.457-3.578,24.063-34.189,24.063-34.189L421.239,260.765z"/>
				</g>
			</g>
			<g>
				<path style="fill:#C1584D;" d="M420.474,226.239c-1.873,0-3.533-1.028-4.278-2.674c-0.142-0.313-0.003-0.682,0.311-0.824
					c0.313-0.142,0.682-0.003,0.824,0.311c0.569,1.257,1.89,2.022,3.358,1.936c1.112-0.061,2.476-0.666,2.971-2.18
					c0.107-0.326,0.457-0.507,0.785-0.398c0.327,0.106,0.505,0.458,0.398,0.785c-0.577,1.767-2.142,2.93-4.087,3.037
					C420.662,226.236,420.568,226.239,420.474,226.239z"/>
			</g>
		</g>
	</g>
	
		<text transform="matrix(1 0 0 1 151.2178 45.9805)" style="fill:#87ACD8; font-family:'Amatic-Bold'; font-size:34.8362px; letter-spacing:3;">People Traveling</text>
</g>
<g id="DESIGNED_BY_FREEPIK">
	<g>
		<g id="XMLID_319_">
			<g id="XMLID_338_">
				<path id="XMLID_346_" style="fill:#1D262D;" d="M260.104,465.465c-0.433,0.443-0.804,0.932-1.108,1.453l-0.465-0.241
					c-0.067-0.297-0.35-0.502-0.659-0.466c-0.331,0.039-0.567,0.339-0.529,0.67c0.039,0.331,0.339,0.567,0.67,0.528
					c0.065-0.007,0.127-0.025,0.184-0.052l0.451,0.234c-0.251,0.554-0.433,1.139-0.539,1.743l0.747,0.132
					c0.229-1.306,0.85-2.507,1.792-3.473L260.104,465.465z"/>
				<path id="XMLID_345_" style="fill:#1D262D;" d="M265.591,463.164c-0.171,0-0.341,0.006-0.509,0.017l-0.074-0.626
					c0.188-0.149,0.296-0.389,0.266-0.645c-0.046-0.393-0.402-0.674-0.795-0.628c-0.394,0.046-0.675,0.402-0.628,0.796
					c0.03,0.254,0.189,0.461,0.404,0.563l0.073,0.624c-0.714,0.116-1.402,0.332-2.06,0.646l0.327,0.685
					c0.935-0.447,1.941-0.674,2.995-0.674c0.497,0,0.993,0.053,1.476,0.158l0.16-0.741
					C266.692,463.222,266.142,463.164,265.591,463.164z"/>
				<path id="XMLID_344_" style="fill:#1D262D;" d="M272.194,465.711c0.331-0.04,0.566-0.341,0.525-0.672
					c-0.04-0.331-0.341-0.566-0.672-0.525c-0.31,0.038-0.535,0.304-0.53,0.608l-0.416,0.363c-0.418-0.43-0.89-0.813-1.407-1.14
					l-0.404,0.642c1.135,0.715,2.021,1.727,2.564,2.925l0.69-0.313c-0.251-0.554-0.567-1.071-0.942-1.545l0.402-0.351
					C272.065,465.715,272.128,465.719,272.194,465.711z"/>
				<path id="XMLID_343_" style="fill:#1D262D;" d="M265.044,473.372c-0.386,0.023-0.775,0.035-1.157,0.035
					c-0.88,0-1.733-0.061-2.479-0.18c-0.391-0.062-0.846-0.154-1.271-0.292c1.047,1.861,3.069,3.125,5.389,3.125
					c2.855,0,5.263-1.916,5.949-4.503c-0.682,0.449-1.505,0.825-2.458,1.122C267.838,473.047,266.463,473.287,265.044,473.372z"/>
				<path id="XMLID_339_" style="fill:#1D262D;" d="M265.591,464.68c-3.351,0-6.079,2.666-6.079,5.943
					c0,0.425,0.046,0.849,0.137,1.261c0.674,0.483,2.706,0.891,5.348,0.731c2.88-0.174,5.297-0.958,6.672-2.159
					c-0.005-0.194-0.02-0.39-0.045-0.581C271.244,466.914,268.65,464.68,265.591,464.68z M263.432,471.195
					c-1.02,0-1.85-0.83-1.85-1.85c0-1.021,0.83-1.851,1.85-1.851c1.02,0,1.85,0.83,1.85,1.851
					C265.282,470.365,264.452,471.195,263.432,471.195z M268.169,470.287c-0.75,0-1.36-0.61-1.36-1.36s0.61-1.36,1.36-1.36
					s1.36,0.61,1.36,1.36S268.919,470.287,268.169,470.287z"/>
			</g>
			<path id="XMLID_336_" style="fill:#1D262D;" d="M281.595,466.547c-0.295-0.116-0.806-0.31-1.383-0.238
				c-0.551,0.069-0.844,0.341-0.844,1.007v0.866h2.229v1.717h-2.229v5.455h-1.932v-5.455h-1.339v-1.717h1.339v-0.889
				c0-1.68,0.896-2.782,2.568-2.782c0.643,0,1.157,0.121,1.59,0.308V466.547z"/>
			<path id="XMLID_334_" style="fill:#1D262D;" d="M286.297,469.878c-0.177-0.029-0.357-0.046-0.525-0.046
				c-0.896,0-1.51,0.548-1.51,1.613v3.908h-1.933v-7.172h1.873v0.784c0.451-0.673,1.14-0.977,2.021-0.977
				c0.414,0,0.848,0.128,1.095,0.337L286.297,469.878z"/>
			<path id="XMLID_331_" style="fill:#1D262D;" d="M293.965,471.757c0,0.222-0.016,0.488-0.037,0.651h-5.085
				c0.207,1.036,0.933,1.487,1.843,1.487c0.622,0,1.295-0.252,1.813-0.689l1.133,1.243c-0.814,0.748-1.851,1.089-3.057,1.089
				c-2.198,0-3.724-1.496-3.724-3.753c0-2.258,1.48-3.797,3.627-3.797C292.543,467.99,293.958,469.522,293.965,471.757z
				 M288.851,471.091h3.175c-0.178-0.918-0.732-1.437-1.561-1.437C289.554,469.655,289.021,470.203,288.851,471.091z"/>
			<path id="XMLID_328_" style="fill:#1D262D;" d="M301.619,471.757c0,0.222-0.016,0.488-0.037,0.651h-5.085
				c0.207,1.036,0.933,1.487,1.843,1.487c0.622,0,1.296-0.252,1.814-0.689l1.133,1.243c-0.815,0.748-1.851,1.089-3.058,1.089
				c-2.198,0-3.723-1.496-3.723-3.753c0-2.258,1.48-3.797,3.627-3.797C300.197,467.99,301.611,469.522,301.619,471.757z
				 M296.504,471.091h3.175c-0.178-0.918-0.733-1.437-1.561-1.437C297.208,469.655,296.674,470.203,296.504,471.091z"/>
			<path id="XMLID_325_" style="fill:#1D262D;" d="M309.964,471.764c0,2.154-1.495,3.775-3.472,3.775
				c-0.962,0-1.644-0.378-2.109-0.933v3.708h-1.925v-10.133h1.888v0.792c0.467-0.585,1.154-0.984,2.139-0.984
				C308.469,467.99,309.964,469.611,309.964,471.764z M304.287,471.764c0,1.133,0.748,1.977,1.844,1.977
				c1.14,0,1.85-0.881,1.85-1.977c0-1.095-0.71-1.976-1.85-1.976C305.035,469.789,304.287,470.632,304.287,471.764z"/>
			<path id="XMLID_322_" style="fill:#1D262D;" d="M313.068,465.836c0,0.696-0.541,1.229-1.236,1.229
				c-0.696,0-1.229-0.533-1.229-1.229c0-0.695,0.532-1.243,1.229-1.243C312.527,464.592,313.068,465.14,313.068,465.836z
				 M312.808,475.354h-1.932v-7.172h1.932V475.354z"/>
			<path id="XMLID_320_" style="fill:#1D262D;" d="M316.032,470.736l2.702-2.554h2.368l-3.478,3.375l3.501,3.797h-2.376
				l-2.717-2.901v2.901H314.1v-10.658h1.932V470.736z"/>
		</g>
		<g>
			<path style="fill:#1D262D;" d="M184.412,475.29v-1.055c-0.527,0.718-1.391,1.23-2.387,1.23c-1.846,0-3.149-1.406-3.149-3.706
				c0-2.256,1.289-3.721,3.149-3.721c0.952,0,1.816,0.469,2.387,1.245v-3.765h1.099v9.771H184.412z M184.412,473.371v-3.208
				c-0.395-0.615-1.245-1.143-2.124-1.143c-1.42,0-2.27,1.172-2.27,2.739c0,1.567,0.85,2.725,2.27,2.725
				C183.167,474.484,184.017,473.986,184.412,473.371z"/>
			<path style="fill:#1D262D;" d="M186.932,471.745c0-2.051,1.465-3.706,3.486-3.706c2.139,0,3.398,1.67,3.398,3.794v0.278h-5.727
				c0.088,1.333,1.025,2.446,2.549,2.446c0.806,0,1.626-0.322,2.182-0.894l0.527,0.718c-0.703,0.703-1.655,1.084-2.812,1.084
				C188.44,475.465,186.932,473.957,186.932,471.745z M190.403,468.947c-1.509,0-2.256,1.274-2.314,2.358h4.644
				C192.718,470.25,192.015,468.947,190.403,468.947z"/>
			<path style="fill:#1D262D;" d="M194.607,474.352l0.571-0.791c0.469,0.542,1.362,1.011,2.329,1.011c1.084,0,1.67-0.513,1.67-1.216
				c0-1.714-4.38-0.659-4.38-3.281c0-1.099,0.952-2.036,2.636-2.036c1.202,0,2.051,0.454,2.623,1.025l-0.513,0.762
				c-0.424-0.513-1.201-0.894-2.109-0.894c-0.966,0-1.567,0.483-1.567,1.113c0,1.553,4.379,0.527,4.379,3.281
				c0,1.187-0.952,2.139-2.783,2.139C196.306,475.465,195.325,475.114,194.607,474.352z"/>
			<path style="fill:#1D262D;" d="M201.477,466.471c0-0.41,0.337-0.747,0.732-0.747c0.41,0,0.747,0.337,0.747,0.747
				c0,0.41-0.337,0.732-0.747,0.732C201.814,467.204,201.477,466.881,201.477,466.471z M201.667,475.29v-7.075h1.099v7.075H201.667z
				"/>
			<path style="fill:#1D262D;" d="M204.582,477.106l0.556-0.82c0.586,0.703,1.289,0.967,2.3,0.967c1.172,0,2.27-0.571,2.27-2.124
				v-1.011c-0.513,0.718-1.377,1.26-2.373,1.26c-1.846,0-3.149-1.377-3.149-3.662c0-2.271,1.289-3.677,3.149-3.677
				c0.952,0,1.802,0.469,2.373,1.245v-1.069h1.099v6.87c0,2.344-1.641,3.076-3.369,3.076
				C206.237,478.161,205.416,477.925,204.582,477.106z M209.708,473.253v-3.091c-0.381-0.615-1.23-1.143-2.109-1.143
				c-1.421,0-2.27,1.128-2.27,2.695c0,1.553,0.849,2.695,2.27,2.695C208.478,474.411,209.328,473.869,209.708,473.253z"/>
			<path style="fill:#1D262D;" d="M217.413,475.29v-4.629c0-1.245-0.63-1.641-1.582-1.641c-0.864,0-1.685,0.527-2.094,1.099v5.171
				h-1.099v-7.075h1.099v1.025c0.497-0.586,1.464-1.201,2.519-1.201c1.48,0,2.256,0.747,2.256,2.285v4.966H217.413z"/>
			<path style="fill:#1D262D;" d="M219.932,471.745c0-2.051,1.465-3.706,3.486-3.706c2.139,0,3.398,1.67,3.398,3.794v0.278h-5.727
				c0.088,1.333,1.025,2.446,2.548,2.446c0.806,0,1.626-0.322,2.183-0.894l0.527,0.718c-0.703,0.703-1.655,1.084-2.813,1.084
				C221.441,475.465,219.932,473.957,219.932,471.745z M223.404,468.947c-1.509,0-2.256,1.274-2.314,2.358h4.643
				C225.718,470.25,225.015,468.947,223.404,468.947z"/>
			<path style="fill:#1D262D;" d="M233.35,475.29v-1.055c-0.527,0.718-1.392,1.23-2.388,1.23c-1.845,0-3.149-1.406-3.149-3.706
				c0-2.256,1.289-3.721,3.149-3.721c0.952,0,1.817,0.469,2.388,1.245v-3.765h1.098v9.771H233.35z M233.35,473.371v-3.208
				c-0.396-0.615-1.245-1.143-2.124-1.143c-1.421,0-2.27,1.172-2.27,2.739c0,1.567,0.85,2.725,2.27,2.725
				C232.105,474.484,232.954,473.986,233.35,473.371z"/>
			<path style="fill:#1D262D;" d="M239.692,475.29v-9.771h1.099v3.765c0.571-0.776,1.421-1.245,2.388-1.245
				c1.845,0,3.149,1.465,3.149,3.721c0,2.3-1.304,3.706-3.149,3.706c-0.996,0-1.86-0.513-2.388-1.23v1.055H239.692z M242.9,474.484
				c1.436,0,2.285-1.157,2.285-2.725c0-1.567-0.85-2.739-2.285-2.739c-0.864,0-1.729,0.527-2.109,1.143v3.208
				C241.171,473.986,242.036,474.484,242.9,474.484z"/>
			<path style="fill:#1D262D;" d="M247.528,477.062c0.161,0.073,0.425,0.117,0.6,0.117c0.483,0,0.806-0.161,1.055-0.747l0.469-1.069
				l-2.959-7.148h1.187l2.358,5.801l2.344-5.801h1.2l-3.544,8.511c-0.425,1.024-1.143,1.421-2.08,1.436
				c-0.234,0-0.6-0.044-0.806-0.104L247.528,477.062z"/>
		</g>
	</g>
</g>
</svg>
